ply
format ascii 1.0
comment Created by Blender 2.83.3 - www.blender.org, source file: 'fishyfishy.blend'
element vertex 48
property float x
property float y
property float z
property float nx
property float ny
property float nz
property float s
property float t
element face 16
property list uchar uint vertex_indices
end_header
0.000000 1.922201 0.000000 -0.755690 0.426522 0.497003 0.000000 0.000000
-0.657681 0.756956 0.000000 -0.755690 0.426522 0.497003 0.500000 0.125000
0.000000 0.756956 1.000000 -0.755690 0.426522 0.497003 0.750000 0.625000
0.000000 0.756956 -1.000000 -0.793154 -0.314317 -0.521643 0.250000 0.625000
0.000000 -0.902652 0.000000 -0.793154 -0.314317 -0.521643 0.000000 0.000000
-0.657681 0.756956 0.000000 -0.793154 -0.314317 -0.521643 0.500000 0.125000
0.000000 -0.902652 0.000000 -0.846320 0.259371 0.465263 0.000000 0.000000
-0.233128 -1.663343 0.000000 -0.846320 0.259371 0.465263 0.000000 0.000000
0.000000 -2.168117 0.705460 -0.846320 0.259371 0.465263 0.000000 0.000000
0.000000 0.756956 -1.000000 -0.755690 0.426522 -0.497003 0.250000 0.625000
-0.657681 0.756956 0.000000 -0.755690 0.426522 -0.497003 0.500000 0.125000
0.000000 1.922201 0.000000 -0.755690 0.426522 -0.497003 0.000000 0.000000
-0.657681 0.756956 0.000000 -0.793154 -0.314317 0.521643 0.500000 0.125000
0.000000 -0.902652 0.000000 -0.793154 -0.314317 0.521643 0.000000 0.000000
0.000000 0.756956 1.000000 -0.793154 -0.314317 0.521643 0.750000 0.625000
0.000000 -2.168117 -0.705460 -0.846320 0.259371 -0.465263 0.000000 0.000000
-0.233128 -1.663343 0.000000 -0.846320 0.259371 -0.465263 0.000000 0.000000
0.000000 -0.902652 0.000000 -0.846320 0.259371 -0.465263 0.000000 0.000000
0.000000 -2.168117 0.705460 -0.112370 -0.825306 -0.553393 0.000000 0.000000
-0.233128 -1.663343 0.000000 -0.112370 -0.825306 -0.553393 0.000000 0.000000
0.000000 -1.695084 0.000000 -0.112370 -0.825306 -0.553393 0.000000 0.000000
-0.233128 -1.663343 0.000000 -0.112370 -0.825306 0.553393 0.000000 0.000000
0.000000 -2.168117 -0.705460 -0.112370 -0.825306 0.553393 0.000000 0.000000
0.000000 -1.695084 0.000000 -0.112370 -0.825306 0.553393 0.000000 0.000000
0.000000 1.922201 0.000000 0.755690 0.426522 0.497003 0.000000 0.000000
0.000000 0.756956 1.000000 0.755690 0.426522 0.497003 0.750000 0.625000
0.657681 0.756956 0.000000 0.755690 0.426522 0.497003 0.500000 0.125000
0.000000 0.756956 -1.000000 0.793154 -0.314317 -0.521643 0.250000 0.625000
0.657681 0.756956 0.000000 0.793154 -0.314317 -0.521643 0.500000 0.125000
0.000000 -0.902652 0.000000 0.793154 -0.314317 -0.521643 0.000000 0.000000
0.000000 -0.902652 0.000000 0.846320 0.259371 0.465263 0.000000 0.000000
0.000000 -2.168117 0.705460 0.846320 0.259371 0.465263 0.000000 0.000000
0.233128 -1.663343 0.000000 0.846320 0.259371 0.465263 0.000000 0.000000
0.000000 0.756956 -1.000000 0.755690 0.426522 -0.497003 0.250000 0.625000
0.000000 1.922201 0.000000 0.755690 0.426522 -0.497003 0.000000 0.000000
0.657681 0.756956 0.000000 0.755690 0.426522 -0.497003 0.500000 0.125000
0.657681 0.756956 0.000000 0.793154 -0.314317 0.521643 0.500000 0.125000
0.000000 0.756956 1.000000 0.793154 -0.314317 0.521643 0.750000 0.625000
0.000000 -0.902652 0.000000 0.793154 -0.314317 0.521643 0.000000 0.000000
0.000000 -2.168117 -0.705460 0.846320 0.259371 -0.465263 0.000000 0.000000
0.000000 -0.902652 0.000000 0.846320 0.259371 -0.465263 0.000000 0.000000
0.233128 -1.663343 0.000000 0.846320 0.259371 -0.465263 0.000000 0.000000
0.000000 -2.168117 0.705460 0.112370 -0.825306 -0.553393 0.000000 0.000000
0.000000 -1.695084 0.000000 0.112370 -0.825306 -0.553393 0.000000 0.000000
0.233128 -1.663343 0.000000 0.112370 -0.825306 -0.553393 0.000000 0.000000
0.233128 -1.663343 0.000000 0.112370 -0.825306 0.553393 0.000000 0.000000
0.000000 -1.695084 0.000000 0.112370 -0.825306 0.553393 0.000000 0.000000
0.000000 -2.168117 -0.705460 0.112370 -0.825306 0.553393 0.000000 0.000000
3 0 1 2
3 3 4 5
3 6 7 8
3 9 10 11
3 12 13 14
3 15 16 17
3 18 19 20
3 21 22 23
3 24 25 26
3 27 28 29
3 30 31 32
3 33 34 35
3 36 37 38
3 39 40 41
3 42 43 44
3 45 46 47
