ply
format ascii 1.0
comment Created by Blender 2.83.3 - www.blender.org, source file: 'blahaj.blend'
element vertex 456
property float x
property float y
property float z
property float nx
property float ny
property float nz
property float s
property float t
element face 122
property list uchar uint vertex_indices
end_header
-0.745062 1.000000 0.000000 -0.908264 0.222111 0.354576 0.500000 0.750000
-0.478760 1.000000 0.703963 -0.908264 0.222111 0.354576 0.625000 0.750000
-0.395299 1.809395 0.388918 -0.908264 0.222111 0.354576 0.625000 0.750000
-0.555646 1.809395 0.000000 -0.908264 0.222111 0.354576 0.500000 0.750000
-0.395299 1.809395 -0.422696 -0.897025 0.292184 -0.331624 0.375000 0.750000
-0.555646 1.809395 0.000000 -0.897025 0.292184 -0.331624 0.500000 0.750000
-0.371208 2.232465 -0.115108 -0.897025 0.292184 -0.331624 0.500000 0.750000
-0.299768 2.246646 -0.306886 -0.897025 0.292184 -0.331624 0.375000 0.750000
0.000000 0.000000 -0.948735 -0.357805 0.193872 -0.913449 0.250000 0.625000
-0.546334 -0.000000 -0.727864 -0.357805 0.193872 -0.913449 0.375000 0.625000
-0.478760 1.000000 -0.548959 -0.357805 0.193872 -0.913449 0.375000 0.750000
-0.000000 1.000000 -0.729625 -0.357805 0.193872 -0.913449 0.250000 0.750000
-0.795085 -0.000000 0.000000 -0.943715 0.071125 0.323022 0.500000 0.625000
-0.546334 -0.000000 0.800772 -0.943715 0.071125 0.323022 0.625000 0.625000
-0.478760 1.000000 0.703963 -0.943715 0.071125 0.323022 0.625000 0.750000
-0.745062 1.000000 0.000000 -0.943715 0.071125 0.323022 0.500000 0.750000
-0.478760 -1.000000 -0.548959 -0.371297 -0.446205 -0.814272 0.375000 0.500000
0.000000 -1.000000 -0.729625 -0.371297 -0.446205 -0.814272 0.250000 0.500000
0.000000 -1.811599 -0.322526 -0.371297 -0.446205 -0.814272 0.250000 0.500000
-0.140816 -1.811599 -0.220675 -0.371297 -0.446205 -0.814272 0.375000 0.500000
-0.395299 1.809395 0.388918 -0.247756 0.611210 0.751691 0.625000 0.750000
-0.000000 1.809395 0.503222 -0.247756 0.611210 0.751691 0.750000 0.750000
-0.000000 2.246646 0.163673 -0.247756 0.611210 0.751691 0.750000 0.750000
-0.299768 2.246646 0.048884 -0.247756 0.611210 0.751691 0.625000 0.750000
-0.546334 -0.000000 -0.727864 -0.919593 0.097707 -0.380528 0.375000 0.625000
-0.660616 -0.000000 -0.421179 -0.919593 0.097707 -0.380528 0.432428 0.625000
-0.656891 0.590106 -0.336592 -0.919593 0.097707 -0.380528 0.442408 0.698662
-0.736724 -0.000000 -0.182796 -0.919593 0.097707 -0.380528 0.470673 0.625000
-0.795085 -0.000000 0.000000 -0.919593 0.097707 -0.380528 0.500000 0.625000
-0.745062 1.000000 0.000000 -0.919593 0.097707 -0.380528 0.500000 0.750000
-0.478760 1.000000 -0.548959 -0.919593 0.097707 -0.380528 0.375000 0.750000
-0.478760 -1.000000 -0.548959 -0.921484 -0.092552 -0.377228 0.375000 0.500000
-0.745062 -1.000000 0.000000 -0.921484 -0.092552 -0.377228 0.500000 0.500000
-0.795085 -0.000000 0.000000 -0.921484 -0.092552 -0.377228 0.500000 0.625000
-0.736724 -0.000000 -0.182796 -0.921484 -0.092552 -0.377228 0.470673 0.625000
-0.665001 -0.355738 -0.298143 -0.921484 -0.092552 -0.377228 0.449368 0.580449
-0.660616 -0.000000 -0.421179 -0.921484 -0.092552 -0.377228 0.432428 0.625000
-0.546334 -0.000000 -0.727864 -0.921484 -0.092552 -0.377228 0.375000 0.625000
-0.745062 -1.000000 0.000000 -0.943715 -0.071125 0.323022 0.500000 0.500000
-0.478760 -1.000000 0.703963 -0.943715 -0.071125 0.323022 0.625000 0.500000
-0.546334 -0.000000 0.800772 -0.943715 -0.071125 0.323022 0.625000 0.625000
-0.795085 -0.000000 0.000000 -0.943715 -0.071125 0.323022 0.500000 0.625000
-0.478760 1.000000 0.703963 -0.232745 0.361582 0.902822 0.625000 0.750000
-0.000000 1.000000 0.814989 -0.232745 0.361582 0.902822 0.750000 0.750000
-0.000000 1.809395 0.503222 -0.232745 0.361582 0.902822 0.750000 0.750000
-0.395299 1.809395 0.388918 -0.232745 0.361582 0.902822 0.625000 0.750000
0.000000 -1.000000 -0.729625 -0.357805 -0.193872 -0.913449 0.250000 0.500000
-0.478760 -1.000000 -0.548959 -0.357805 -0.193872 -0.913449 0.375000 0.500000
-0.546334 -0.000000 -0.727864 -0.357805 -0.193872 -0.913449 0.375000 0.625000
0.000000 0.000000 -0.948735 -0.357805 -0.193872 -0.913449 0.250000 0.625000
-0.478760 1.000000 -0.548959 -0.900229 0.182582 -0.395286 0.375000 0.750000
-0.745062 1.000000 0.000000 -0.900229 0.182582 -0.395286 0.500000 0.750000
-0.555646 1.809395 0.000000 -0.900229 0.182582 -0.395286 0.500000 0.750000
-0.395299 1.809395 -0.422696 -0.900229 0.182582 -0.395286 0.375000 0.750000
-0.000000 1.000000 -0.729625 -0.362910 0.170172 -0.916154 0.250000 0.750000
-0.478760 1.000000 -0.548959 -0.362910 0.170172 -0.916154 0.375000 0.750000
-0.395299 1.809395 -0.422696 -0.362910 0.170172 -0.916154 0.375000 0.750000
-0.000000 1.809395 -0.588264 -0.362910 0.170172 -0.916154 0.250000 0.750000
-0.546334 -0.000000 0.800772 -0.284804 0.142120 0.947992 0.625000 0.625000
-0.109356 -0.000000 0.960122 -0.284804 0.142120 0.947992 0.724980 0.625000
-0.000000 0.325583 0.939764 -0.284804 0.142120 0.947992 0.750000 0.665698
-0.000000 1.000000 0.814989 -0.284804 0.142120 0.947992 0.750000 0.750000
-0.478760 1.000000 0.703963 -0.284804 0.142120 0.947992 0.625000 0.750000
-0.478760 -1.000000 0.703963 -0.286072 -0.141508 0.947702 0.625000 0.500000
0.000000 -1.000000 0.814989 -0.286072 -0.141508 0.947702 0.750000 0.500000
0.000000 -0.395076 0.926907 -0.286072 -0.141508 0.947702 0.750000 0.575616
-0.173497 -0.190963 0.913540 -0.286072 -0.141508 0.947702 0.709730 0.601259
-0.109356 -0.000000 0.960122 -0.286072 -0.141508 0.947702 0.724980 0.625000
-0.546334 -0.000000 0.800772 -0.286072 -0.141508 0.947702 0.625000 0.625000
0.000000 -1.811599 0.273319 -0.238287 -0.000000 0.971195 0.750000 0.500000
-0.140816 -1.811599 0.238769 -0.238287 -0.000000 0.971195 0.625000 0.500000
-0.140816 -1.872708 0.238769 -0.238287 -0.000000 0.971195 0.625000 0.500000
0.000000 -2.063943 0.273319 -0.238287 -0.000000 0.971195 0.750000 0.500000
0.000000 -1.000000 0.814989 -0.191650 -0.545856 0.815666 0.750000 0.500000
-0.478760 -1.000000 0.703963 -0.191650 -0.545856 0.815666 0.625000 0.500000
-0.140816 -1.811599 0.238769 -0.191650 -0.545856 0.815666 0.625000 0.500000
0.000000 -1.811599 0.273319 -0.191650 -0.545856 0.815666 0.750000 0.500000
-0.745062 -1.000000 0.000000 -0.783910 -0.474878 -0.399970 0.500000 0.500000
-0.478760 -1.000000 -0.548959 -0.783910 -0.474878 -0.399970 0.375000 0.500000
-0.140816 -1.811599 -0.220675 -0.783910 -0.474878 -0.399970 0.375000 0.500000
-0.268394 -1.811599 0.002339 -0.783910 -0.474878 -0.399970 0.500000 0.500000
-0.478760 -1.000000 0.703963 -0.800274 -0.497202 0.335191 0.625000 0.500000
-0.745062 -1.000000 0.000000 -0.800274 -0.497202 0.335191 0.500000 0.500000
-0.268394 -1.811599 0.002339 -0.800274 -0.497202 0.335191 0.500000 0.500000
-0.140816 -1.811599 0.238769 -0.800274 -0.497202 0.335191 0.625000 0.500000
-0.299768 2.246646 -0.306886 -0.380465 0.749843 -0.541278 0.375000 0.750000
-0.168860 2.435127 -0.112190 -0.380465 0.749843 -0.541278 0.500000 0.750000
-0.000000 2.539289 -0.112190 -0.380465 0.749843 -0.541278 0.500000 0.875000
-0.000000 2.246646 -0.491987 -0.380465 0.749843 -0.541278 0.375000 0.875000
-0.168860 2.435127 -0.112190 -0.313396 0.683745 0.658996 0.500000 0.750000
-0.299768 2.246646 0.048884 -0.313396 0.683745 0.658996 0.625000 0.750000
-0.000000 2.246646 0.163673 -0.313396 0.683745 0.658996 0.625000 0.875000
-0.000000 2.539289 -0.112190 -0.313396 0.683745 0.658996 0.500000 0.875000
-0.555646 1.809395 0.000000 -0.828803 0.447451 0.335966 0.500000 0.750000
-0.395299 1.809395 0.388918 -0.828803 0.447451 0.335966 0.625000 0.750000
-0.299768 2.246646 0.048884 -0.828803 0.447451 0.335966 0.625000 0.750000
-0.371208 2.232465 -0.115108 -0.828803 0.447451 0.335966 0.500000 0.750000
-0.000000 1.809395 -0.588264 -0.435326 0.256819 -0.862865 0.250000 0.750000
-0.395299 1.809395 -0.422696 -0.435326 0.256819 -0.862865 0.375000 0.750000
-0.299768 2.246646 -0.306886 -0.435326 0.256819 -0.862865 0.375000 0.750000
-0.000000 2.246646 -0.491987 -0.435326 0.256819 -0.862865 0.250000 0.750000
-0.140816 -1.872708 0.238769 -0.952128 -0.229319 0.202149 0.625000 0.500000
-0.268394 -1.872708 0.002339 -0.952128 -0.229319 0.202149 0.500000 0.500000
-0.133312 -2.112281 0.002339 -0.952128 -0.229319 0.202149 0.500000 0.500000
-0.140816 -2.193988 0.238769 -0.952128 -0.229319 0.202149 0.625000 0.500000
-0.299768 2.246646 -0.306886 -0.690968 0.692866 -0.206158 0.375000 0.750000
-0.371208 2.232465 -0.115108 -0.690968 0.692866 -0.206158 0.500000 0.750000
-0.168860 2.435127 -0.112190 -0.690968 0.692866 -0.206158 0.500000 0.750000
-0.371208 2.232465 -0.115108 -0.688563 0.684028 0.240804 0.500000 0.750000
-0.299768 2.246646 0.048884 -0.688563 0.684028 0.240804 0.625000 0.750000
-0.168860 2.435127 -0.112190 -0.688563 0.684028 0.240804 0.500000 0.750000
-0.140816 -1.811599 -0.220675 -0.586061 -0.000000 -0.810267 0.375000 0.500000
0.000000 -1.811599 -0.322526 -0.586061 -0.000000 -0.810267 0.250000 0.500000
0.000000 -2.122855 -0.322526 -0.586061 -0.000000 -0.810267 0.250000 0.500000
-0.140816 -1.872708 -0.220675 -0.586061 -0.000000 -0.810267 0.375000 0.500000
-0.268394 -1.811599 0.002339 -0.868006 0.000000 -0.496554 0.500000 0.500000
-0.140816 -1.811599 -0.220675 -0.868006 0.000000 -0.496554 0.375000 0.500000
-0.140816 -1.872708 -0.220675 -0.868006 0.000000 -0.496554 0.375000 0.500000
-0.268394 -1.872708 0.002339 -0.868006 0.000000 -0.496554 0.500000 0.500000
-0.140816 -1.811599 0.238769 -0.880053 0.000000 0.474875 0.625000 0.500000
-0.268394 -1.811599 0.002339 -0.880053 0.000000 0.474875 0.500000 0.500000
-0.268394 -1.872708 0.002339 -0.880053 0.000000 0.474875 0.500000 0.500000
-0.140816 -1.872708 0.238769 -0.880053 0.000000 0.474875 0.625000 0.500000
0.000000 -2.407753 0.000000 -0.966040 -0.183724 -0.181690 0.500000 0.375000
0.000000 -2.945839 0.250322 -0.966040 -0.183724 -0.181690 0.536359 0.375000
-0.088453 -2.734370 0.800575 -0.966040 -0.183724 -0.181690 0.625000 0.453518
-0.140816 -2.193988 0.238769 -0.966040 -0.183724 -0.181690 0.625000 0.500000
0.000000 -2.407753 0.000000 -0.896290 -0.405809 0.178838 0.500000 0.375000
-0.133312 -2.112281 0.002339 -0.896290 -0.405809 0.178838 0.500000 0.500000
-0.140816 -2.193988 -0.220675 -0.896290 -0.405809 0.178838 0.375000 0.500000
0.000000 -2.063943 0.273319 -0.824356 0.413119 0.387001 0.750000 0.500000
-0.140816 -2.193988 0.238769 -0.824356 0.413119 0.387001 0.625000 0.500000
-0.088453 -2.734370 0.800575 -0.824356 0.413119 0.387001 0.671482 0.500000
0.000000 -2.734370 1.115574 -0.824356 0.413119 0.387001 0.750000 0.500000
-0.140816 -2.193988 -0.220675 -0.586061 -0.000000 -0.810267 0.375000 0.500000
-0.268394 -1.872708 0.002339 -0.949726 -0.228741 -0.213770 0.500000 0.500000
-0.140816 -1.872708 -0.220675 -0.949726 -0.228741 -0.213770 0.375000 0.500000
-0.140816 -2.193988 -0.220675 -0.949726 -0.228741 -0.213770 0.375000 0.500000
-0.133312 -2.112281 0.002339 -0.949726 -0.228741 -0.213770 0.500000 0.500000
-0.140816 -2.193988 0.238769 -0.238287 -0.000000 0.971195 0.625000 0.500000
-0.140816 -2.193988 -0.220675 -0.808615 0.465129 -0.360273 0.375000 0.500000
0.000000 -2.122855 -0.322526 -0.808615 0.465129 -0.360273 0.250000 0.500000
0.000000 -2.379183 -0.775824 -0.808615 0.465129 -0.360273 0.250000 0.500000
-0.088453 -2.546276 -0.670655 -0.808615 0.465129 -0.360273 0.328518 0.500000
-0.140816 -2.193988 0.238769 -0.899021 -0.404294 -0.168252 0.625000 0.500000
-0.133312 -2.112281 0.002339 -0.899021 -0.404294 -0.168252 0.500000 0.500000
0.000000 -2.407753 0.000000 -0.899021 -0.404294 -0.168252 0.500000 0.375000
0.000000 -3.091040 -0.659385 -0.966208 -0.152585 0.207751 0.375000 0.375000
0.000000 -2.751338 -0.409886 -0.966208 -0.152585 0.207751 0.463641 0.375000
-0.088453 -2.546276 -0.670655 -0.966208 -0.152585 0.207751 0.375000 0.453518
-0.088453 -2.734370 0.800575 -0.976352 -0.200954 -0.079720 0.625000 0.453518
0.000000 -2.945839 0.250322 -0.976352 -0.200954 -0.079720 0.536359 0.375000
0.000000 -3.285542 1.106630 -0.976352 -0.200954 -0.079720 0.625000 0.375000
-0.088453 -2.546276 -0.670655 -0.655698 -0.121880 -0.745121 0.328518 0.500000
0.000000 -2.379183 -0.775824 -0.655698 -0.121880 -0.745121 0.250000 0.500000
0.000000 -3.091040 -0.659385 -0.655698 -0.121880 -0.745121 0.250000 0.500000
0.000000 -2.734370 1.115574 -0.962753 -0.004387 0.270346 0.750000 0.500000
-0.088453 -2.734370 0.800575 -0.962753 -0.004387 0.270346 0.671482 0.500000
0.000000 -3.285542 1.106630 -0.962753 -0.004387 0.270346 0.750000 0.500000
-0.088453 -2.546276 -0.670655 -0.935972 -0.299377 0.185283 0.375000 0.453518
0.000000 -2.751338 -0.409886 -0.935972 -0.299377 0.185283 0.463641 0.375000
0.000000 -2.407753 0.000000 -0.935972 -0.299377 0.185283 0.500000 0.375000
-0.140816 -2.193988 -0.220675 -0.935972 -0.299377 0.185283 0.375000 0.500000
-1.770538 -0.656584 -0.298143 -0.190507 -0.000000 -0.981686 0.479914 0.025116
-1.770538 -0.431954 -0.298143 -0.190507 -0.000000 -0.981686 0.533470 0.103741
-1.136527 -0.113045 -0.421179 -0.190507 -0.000000 -0.981686 0.510225 0.115287
-0.665001 -0.355738 -0.298143 0.027494 -0.377816 0.925473 0.819209 0.237064
-0.736724 -0.000000 -0.182796 0.027494 -0.377816 0.925473 0.787215 0.196851
-1.212635 -0.113045 -0.182796 0.027494 -0.377816 0.925473 0.787215 0.196851
-1.140912 -0.311959 -0.298143 0.027494 -0.377816 0.925473 0.792402 0.118099
-0.736724 -0.000000 -0.182796 -0.159753 0.329772 0.930446 0.587334 0.143283
-0.656891 0.590106 -0.336592 -0.159753 0.329772 0.930446 0.574246 0.218310
-1.409634 0.107951 -0.336592 -0.159753 0.329772 0.930446 0.546968 0.234102
-1.212635 -0.113045 -0.182796 -0.159753 0.329772 0.930446 0.561492 0.065757
-1.770538 -0.431954 -0.298143 -0.354639 0.300123 0.885526 0.533470 0.103741
-1.212635 -0.113045 -0.182796 -0.354639 0.300123 0.885526 0.561492 0.065757
-1.409634 0.107951 -0.336592 -0.354639 0.300123 0.885526 0.546968 0.234102
-0.656891 0.590106 -0.336592 -0.085353 0.176191 -0.980649 0.687297 0.182213
-0.660616 -0.000000 -0.421179 -0.085353 0.176191 -0.980649 0.761928 0.213970
-1.136527 -0.113045 -0.421179 -0.085353 0.176191 -0.980649 0.666730 0.122225
-1.409634 0.107951 -0.336592 -0.085353 0.176191 -0.980649 0.636749 0.168802
-0.660616 -0.000000 -0.421179 0.029527 -0.405748 -0.913508 0.761928 0.213970
-0.665001 -0.355738 -0.298143 0.029527 -0.405748 -0.913508 0.819209 0.237064
-1.140912 -0.311959 -0.298143 0.029527 -0.405748 -0.913508 0.792402 0.118099
-1.136527 -0.113045 -0.421179 0.029527 -0.405748 -0.913508 0.666730 0.122225
-1.212635 -0.113045 -0.182796 0.232063 -0.423976 0.875438 0.787215 0.196851
-1.770538 -0.656584 -0.298143 0.232063 -0.423976 0.875438 0.642324 0.039364
-1.140912 -0.311959 -0.298143 0.232063 -0.423976 0.875438 0.792402 0.118099
-1.770538 -0.656584 -0.298143 0.278933 -0.509607 -0.813939 0.642324 0.039364
-1.136527 -0.113045 -0.421179 0.278933 -0.509607 -0.813939 0.666730 0.122225
-1.140912 -0.311959 -0.298143 0.278933 -0.509607 -0.813939 0.792402 0.118099
-1.770538 -0.656584 -0.298143 -0.202468 0.000000 0.979289 0.479914 0.025116
-1.212635 -0.113045 -0.182796 -0.202468 0.000000 0.979289 0.561492 0.065757
-1.770538 -0.431954 -0.298143 -0.202468 0.000000 0.979289 0.533470 0.103741
-1.409634 0.107951 -0.336592 -0.231051 0.085428 -0.969184 0.546968 0.234102
-1.136527 -0.113045 -0.421179 -0.231051 0.085428 -0.969184 0.510225 0.115287
-1.770538 -0.431954 -0.298143 -0.231051 0.085428 -0.969184 0.533470 0.103741
0.000000 0.000000 1.403186 -0.562457 0.130285 0.816497 0.270208 0.247490
-0.109356 -0.222188 1.363308 -0.562457 0.130285 0.816497 0.334324 0.145177
0.000000 -0.787375 1.528824 -0.562457 0.130285 0.816497 0.290582 0.206854
-0.109356 -0.000000 0.960122 -0.957304 0.008527 0.288957 0.426561 0.197884
-0.173497 -0.190963 0.913540 -0.957304 0.008527 0.288957 0.432238 0.155541
-0.079721 -0.190963 1.063937 -0.957304 0.008527 0.288957 0.375656 0.177244
-0.109356 -0.000000 1.120399 -0.957304 0.008527 0.288957 0.407958 0.212611
-0.173497 -0.190963 0.913540 -0.828446 -0.496961 0.258276 0.432238 0.155541
0.000000 -0.395076 0.926907 -0.828446 -0.496961 0.258276 0.432979 0.122146
0.000000 -0.395076 1.077305 -0.828446 -0.496961 0.258276 0.363220 0.123696
-0.079721 -0.190963 1.063937 -0.828446 -0.496961 0.258276 0.375656 0.177244
-0.000000 0.325583 0.939764 -0.927571 0.362285 0.091445 0.373296 0.242457
-0.109356 -0.000000 0.960122 -0.927571 0.362285 0.091445 0.426561 0.197884
-0.109356 -0.000000 1.120399 -0.927571 0.362285 0.091445 0.407958 0.212611
-0.000000 0.244671 1.100041 -0.927571 0.362285 0.091445 0.339967 0.268035
-0.000000 0.127021 1.224852 -0.881459 0.384661 0.273981 0.304312 0.291288
-0.109356 -0.222188 1.363308 -0.881459 0.384661 0.273981 0.334324 0.145177
0.000000 0.000000 1.403186 -0.881459 0.384661 0.273981 0.270208 0.247490
-0.079721 -0.190963 1.063937 -0.986573 -0.120513 -0.110233 0.375656 0.177244
-0.109356 -0.222188 1.363308 -0.986573 -0.120513 -0.110233 0.334324 0.145177
-0.109356 -0.000000 1.120399 -0.986573 -0.120513 -0.110233 0.407958 0.212611
-0.000000 0.244671 1.100041 -0.832275 0.407125 0.376255 0.339967 0.268035
-0.109356 -0.000000 1.120399 -0.832275 0.407125 0.376255 0.407958 0.212611
-0.109356 -0.222188 1.363308 -0.832275 0.407125 0.376255 0.334324 0.145177
-0.000000 0.127021 1.224852 -0.832275 0.407125 0.376255 0.304312 0.291288
0.000000 -0.395076 1.077305 -0.920722 -0.368092 -0.129537 0.363220 0.123696
-0.109356 -0.222188 1.363308 -0.920722 -0.368092 -0.129537 0.334324 0.145177
-0.079721 -0.190963 1.063937 -0.920722 -0.368092 -0.129537 0.375656 0.177244
0.000000 -0.395076 1.077305 -0.945675 -0.245421 -0.213232 0.306860 0.182826
0.000000 -0.787375 1.528824 -0.945675 -0.245421 -0.213232 0.290582 0.206854
-0.109356 -0.222188 1.363308 -0.945675 -0.245421 -0.213232 0.334324 0.145177
0.745062 1.000000 0.000000 0.908264 0.222111 0.354576 0.500000 0.750000
0.555646 1.809395 0.000000 0.908264 0.222111 0.354576 0.500000 0.750000
0.395299 1.809395 0.388918 0.908264 0.222111 0.354576 0.625000 0.750000
0.478760 1.000000 0.703963 0.908264 0.222111 0.354576 0.625000 0.750000
0.395299 1.809395 -0.422696 0.897025 0.292184 -0.331624 0.375000 0.750000
0.299768 2.246646 -0.306886 0.897025 0.292184 -0.331624 0.375000 0.750000
0.371207 2.232465 -0.115108 0.897025 0.292184 -0.331624 0.500000 0.750000
0.555646 1.809395 0.000000 0.897025 0.292184 -0.331624 0.500000 0.750000
0.000000 0.000000 -0.948735 0.357805 0.193872 -0.913449 0.250000 0.625000
-0.000000 1.000000 -0.729625 0.357805 0.193872 -0.913449 0.250000 0.750000
0.478760 1.000000 -0.548959 0.357805 0.193872 -0.913449 0.375000 0.750000
0.546334 0.000000 -0.727864 0.357805 0.193872 -0.913449 0.375000 0.625000
0.795085 0.000000 0.000000 0.943715 0.071125 0.323022 0.500000 0.625000
0.745062 1.000000 0.000000 0.943715 0.071125 0.323022 0.500000 0.750000
0.478760 1.000000 0.703963 0.943715 0.071125 0.323022 0.625000 0.750000
0.546334 0.000000 0.800772 0.943715 0.071125 0.323022 0.625000 0.625000
0.478760 -1.000000 -0.548959 0.371297 -0.446205 -0.814272 0.375000 0.500000
0.140816 -1.811599 -0.220675 0.371297 -0.446205 -0.814272 0.375000 0.500000
0.000000 -1.811599 -0.322526 0.371297 -0.446205 -0.814272 0.250000 0.500000
0.000000 -1.000000 -0.729625 0.371297 -0.446205 -0.814272 0.250000 0.500000
0.395299 1.809395 0.388918 0.247756 0.611210 0.751691 0.625000 0.750000
0.299768 2.246646 0.048884 0.247756 0.611210 0.751691 0.625000 0.750000
-0.000000 2.246646 0.163673 0.247756 0.611210 0.751691 0.750000 0.750000
-0.000000 1.809395 0.503222 0.247756 0.611210 0.751691 0.750000 0.750000
0.546334 0.000000 -0.727864 0.919593 0.097707 -0.380529 0.375000 0.625000
0.478760 1.000000 -0.548959 0.919593 0.097707 -0.380529 0.375000 0.750000
0.745062 1.000000 0.000000 0.919593 0.097707 -0.380529 0.500000 0.750000
0.795085 0.000000 0.000000 0.919593 0.097707 -0.380529 0.500000 0.625000
0.736724 0.000000 -0.182796 0.919593 0.097707 -0.380529 0.470673 0.625000
0.656891 0.590106 -0.336592 0.919593 0.097707 -0.380529 0.442408 0.698662
0.660616 0.000000 -0.421179 0.919593 0.097707 -0.380529 0.432428 0.625000
0.478760 -1.000000 -0.548959 0.921484 -0.092551 -0.377228 0.375000 0.500000
0.546334 0.000000 -0.727864 0.921484 -0.092551 -0.377228 0.375000 0.625000
0.660616 0.000000 -0.421179 0.921484 -0.092551 -0.377228 0.432428 0.625000
0.665002 -0.355738 -0.298143 0.921484 -0.092551 -0.377228 0.449368 0.580449
0.736724 0.000000 -0.182796 0.921484 -0.092551 -0.377228 0.470673 0.625000
0.795085 0.000000 0.000000 0.921484 -0.092551 -0.377228 0.500000 0.625000
0.745062 -1.000000 0.000000 0.921484 -0.092551 -0.377228 0.500000 0.500000
0.745062 -1.000000 0.000000 0.943715 -0.071125 0.323022 0.500000 0.500000
0.795085 0.000000 0.000000 0.943715 -0.071125 0.323022 0.500000 0.625000
0.546334 0.000000 0.800772 0.943715 -0.071125 0.323022 0.625000 0.625000
0.478760 -1.000000 0.703963 0.943715 -0.071125 0.323022 0.625000 0.500000
0.478760 1.000000 0.703963 0.232745 0.361582 0.902822 0.625000 0.750000
0.395299 1.809395 0.388918 0.232745 0.361582 0.902822 0.625000 0.750000
-0.000000 1.809395 0.503222 0.232745 0.361582 0.902822 0.750000 0.750000
-0.000000 1.000000 0.814989 0.232745 0.361582 0.902822 0.750000 0.750000
0.000000 -1.000000 -0.729625 0.357805 -0.193872 -0.913449 0.250000 0.500000
0.000000 0.000000 -0.948735 0.357805 -0.193872 -0.913449 0.250000 0.625000
0.546334 0.000000 -0.727864 0.357805 -0.193872 -0.913449 0.375000 0.625000
0.478760 -1.000000 -0.548959 0.357805 -0.193872 -0.913449 0.375000 0.500000
0.478760 1.000000 -0.548959 0.900229 0.182582 -0.395286 0.375000 0.750000
0.395299 1.809395 -0.422696 0.900229 0.182582 -0.395286 0.375000 0.750000
0.555646 1.809395 0.000000 0.900229 0.182582 -0.395286 0.500000 0.750000
0.745062 1.000000 0.000000 0.900229 0.182582 -0.395286 0.500000 0.750000
-0.000000 1.000000 -0.729625 0.362910 0.170173 -0.916154 0.250000 0.750000
-0.000000 1.809395 -0.588264 0.362910 0.170173 -0.916154 0.250000 0.750000
0.395299 1.809395 -0.422696 0.362910 0.170173 -0.916154 0.375000 0.750000
0.478760 1.000000 -0.548959 0.362910 0.170173 -0.916154 0.375000 0.750000
0.546334 0.000000 0.800772 0.284804 0.142120 0.947992 0.625000 0.625000
0.478760 1.000000 0.703963 0.284804 0.142120 0.947992 0.625000 0.750000
-0.000000 1.000000 0.814989 0.284804 0.142120 0.947992 0.750000 0.750000
-0.000000 0.325583 0.939764 0.284804 0.142120 0.947992 0.750000 0.665698
0.109356 0.000000 0.960122 0.284804 0.142120 0.947992 0.724980 0.625000
0.478760 -1.000000 0.703963 0.286072 -0.141508 0.947702 0.625000 0.500000
0.546334 0.000000 0.800772 0.286072 -0.141508 0.947702 0.625000 0.625000
0.109356 0.000000 0.960122 0.286072 -0.141508 0.947702 0.724980 0.625000
0.173497 -0.190963 0.913540 0.286072 -0.141508 0.947702 0.709730 0.601259
0.000000 -0.395076 0.926907 0.286072 -0.141508 0.947702 0.750000 0.575616
0.000000 -1.000000 0.814989 0.286072 -0.141508 0.947702 0.750000 0.500000
0.000000 -1.811599 0.273319 0.238287 0.000000 0.971195 0.750000 0.500000
0.000000 -2.063943 0.273319 0.238287 0.000000 0.971195 0.750000 0.500000
0.140816 -1.872708 0.238769 0.238287 0.000000 0.971195 0.625000 0.500000
0.140816 -1.811599 0.238769 0.238287 0.000000 0.971195 0.625000 0.500000
0.000000 -1.000000 0.814989 0.191650 -0.545856 0.815666 0.750000 0.500000
0.000000 -1.811599 0.273319 0.191650 -0.545856 0.815666 0.750000 0.500000
0.140816 -1.811599 0.238769 0.191650 -0.545856 0.815666 0.625000 0.500000
0.478760 -1.000000 0.703963 0.191650 -0.545856 0.815666 0.625000 0.500000
0.745062 -1.000000 0.000000 0.783910 -0.474878 -0.399970 0.500000 0.500000
0.268394 -1.811599 0.002339 0.783910 -0.474878 -0.399970 0.500000 0.500000
0.140816 -1.811599 -0.220675 0.783910 -0.474878 -0.399970 0.375000 0.500000
0.478760 -1.000000 -0.548959 0.783910 -0.474878 -0.399970 0.375000 0.500000
0.478760 -1.000000 0.703963 0.800274 -0.497202 0.335190 0.625000 0.500000
0.140816 -1.811599 0.238769 0.800274 -0.497202 0.335190 0.625000 0.500000
0.268394 -1.811599 0.002339 0.800274 -0.497202 0.335190 0.500000 0.500000
0.745062 -1.000000 0.000000 0.800274 -0.497202 0.335190 0.500000 0.500000
0.299768 2.246646 -0.306886 0.380465 0.749843 -0.541278 0.375000 0.750000
-0.000000 2.246646 -0.491987 0.380465 0.749843 -0.541278 0.375000 0.875000
-0.000000 2.539289 -0.112190 0.380465 0.749843 -0.541278 0.500000 0.875000
0.168859 2.435127 -0.112190 0.380465 0.749843 -0.541278 0.500000 0.750000
0.168859 2.435127 -0.112190 0.313396 0.683745 0.658996 0.500000 0.750000
-0.000000 2.539289 -0.112190 0.313396 0.683745 0.658996 0.500000 0.875000
-0.000000 2.246646 0.163673 0.313396 0.683745 0.658996 0.625000 0.875000
0.299768 2.246646 0.048884 0.313396 0.683745 0.658996 0.625000 0.750000
0.555646 1.809395 0.000000 0.828803 0.447451 0.335966 0.500000 0.750000
0.371207 2.232465 -0.115108 0.828803 0.447451 0.335966 0.500000 0.750000
0.299768 2.246646 0.048884 0.828803 0.447451 0.335966 0.625000 0.750000
0.395299 1.809395 0.388918 0.828803 0.447451 0.335966 0.625000 0.750000
-0.000000 1.809395 -0.588264 0.435326 0.256819 -0.862865 0.250000 0.750000
-0.000000 2.246646 -0.491987 0.435326 0.256819 -0.862865 0.250000 0.750000
0.299768 2.246646 -0.306886 0.435326 0.256819 -0.862865 0.375000 0.750000
0.395299 1.809395 -0.422696 0.435326 0.256819 -0.862865 0.375000 0.750000
0.140816 -1.872708 0.238769 0.952128 -0.229319 0.202149 0.625000 0.500000
0.140817 -2.193988 0.238769 0.952128 -0.229319 0.202149 0.625000 0.500000
0.133313 -2.112281 0.002339 0.952128 -0.229319 0.202149 0.500000 0.500000
0.268394 -1.872708 0.002339 0.952128 -0.229319 0.202149 0.500000 0.500000
0.299768 2.246646 -0.306886 0.690968 0.692866 -0.206158 0.375000 0.750000
0.168859 2.435127 -0.112190 0.690968 0.692866 -0.206158 0.500000 0.750000
0.371207 2.232465 -0.115108 0.690968 0.692866 -0.206158 0.500000 0.750000
0.371207 2.232465 -0.115108 0.688563 0.684028 0.240804 0.500000 0.750000
0.168859 2.435127 -0.112190 0.688563 0.684028 0.240804 0.500000 0.750000
0.299768 2.246646 0.048884 0.688563 0.684028 0.240804 0.625000 0.750000
0.140816 -1.811599 -0.220675 0.586061 0.000000 -0.810267 0.375000 0.500000
0.140816 -1.872708 -0.220675 0.586061 0.000000 -0.810267 0.375000 0.500000
0.000000 -2.122855 -0.322526 0.586061 0.000000 -0.810267 0.250000 0.500000
0.000000 -1.811599 -0.322526 0.586061 0.000000 -0.810267 0.250000 0.500000
0.268394 -1.811599 0.002339 0.868006 0.000000 -0.496553 0.500000 0.500000
0.268394 -1.872708 0.002339 0.868006 0.000000 -0.496553 0.500000 0.500000
0.140816 -1.872708 -0.220675 0.868006 0.000000 -0.496553 0.375000 0.500000
0.140816 -1.811599 -0.220675 0.868006 0.000000 -0.496553 0.375000 0.500000
0.140816 -1.811599 0.238769 0.880053 0.000000 0.474875 0.625000 0.500000
0.140816 -1.872708 0.238769 0.880053 0.000000 0.474875 0.625000 0.500000
0.268394 -1.872708 0.002339 0.880053 0.000000 0.474875 0.500000 0.500000
0.268394 -1.811599 0.002339 0.880053 0.000000 0.474875 0.500000 0.500000
0.000000 -2.407753 0.000000 0.966040 -0.183724 -0.181691 0.500000 0.375000
0.140817 -2.193988 0.238769 0.966040 -0.183724 -0.181691 0.625000 0.500000
0.088453 -2.734370 0.800575 0.966040 -0.183724 -0.181691 0.625000 0.453518
0.000000 -2.945839 0.250322 0.966040 -0.183724 -0.181691 0.536359 0.375000
0.000000 -2.407753 0.000000 0.896290 -0.405809 0.178838 0.500000 0.375000
0.140817 -2.193988 -0.220675 0.896290 -0.405809 0.178838 0.375000 0.500000
0.133313 -2.112281 0.002339 0.896290 -0.405809 0.178838 0.500000 0.500000
0.000000 -2.063943 0.273319 0.824356 0.413119 0.387001 0.750000 0.500000
0.000000 -2.734370 1.115574 0.824356 0.413119 0.387001 0.750000 0.500000
0.088453 -2.734370 0.800575 0.824356 0.413119 0.387001 0.671482 0.500000
0.140817 -2.193988 0.238769 0.824356 0.413119 0.387001 0.625000 0.500000
0.140817 -2.193988 -0.220675 0.586061 0.000000 -0.810267 0.375000 0.500000
0.268394 -1.872708 0.002339 0.949726 -0.228741 -0.213770 0.500000 0.500000
0.133313 -2.112281 0.002339 0.949726 -0.228741 -0.213770 0.500000 0.500000
0.140817 -2.193988 -0.220675 0.949726 -0.228741 -0.213770 0.375000 0.500000
0.140816 -1.872708 -0.220675 0.949726 -0.228741 -0.213770 0.375000 0.500000
0.140817 -2.193988 0.238769 0.238287 0.000000 0.971195 0.625000 0.500000
0.140817 -2.193988 -0.220675 0.808615 0.465130 -0.360273 0.375000 0.500000
0.088453 -2.546276 -0.670655 0.808615 0.465130 -0.360273 0.328518 0.500000
0.000000 -2.379183 -0.775824 0.808615 0.465130 -0.360273 0.250000 0.500000
0.000000 -2.122855 -0.322526 0.808615 0.465130 -0.360273 0.250000 0.500000
0.140817 -2.193988 0.238769 0.899021 -0.404293 -0.168252 0.625000 0.500000
0.000000 -2.407753 0.000000 0.899021 -0.404293 -0.168252 0.500000 0.375000
0.133313 -2.112281 0.002339 0.899021 -0.404293 -0.168252 0.500000 0.500000
0.000000 -3.091040 -0.659385 0.966208 -0.152585 0.207751 0.375000 0.375000
0.088453 -2.546276 -0.670655 0.966208 -0.152585 0.207751 0.375000 0.453518
0.000000 -2.751338 -0.409886 0.966208 -0.152585 0.207751 0.463641 0.375000
0.088453 -2.734370 0.800575 0.976352 -0.200953 -0.079720 0.625000 0.453518
0.000000 -3.285542 1.106630 0.976352 -0.200953 -0.079720 0.625000 0.375000
0.000000 -2.945839 0.250322 0.976352 -0.200953 -0.079720 0.536359 0.375000
0.088453 -2.546276 -0.670655 0.655698 -0.121880 -0.745121 0.328518 0.500000
0.000000 -3.091040 -0.659385 0.655698 -0.121880 -0.745121 0.250000 0.500000
0.000000 -2.379183 -0.775824 0.655698 -0.121880 -0.745121 0.250000 0.500000
0.000000 -2.734370 1.115574 0.962753 -0.004387 0.270346 0.750000 0.500000
0.000000 -3.285542 1.106630 0.962753 -0.004387 0.270346 0.750000 0.500000
0.088453 -2.734370 0.800575 0.962753 -0.004387 0.270346 0.671482 0.500000
0.088453 -2.546276 -0.670655 0.935972 -0.299377 0.185283 0.375000 0.453518
0.140817 -2.193988 -0.220675 0.935972 -0.299377 0.185283 0.375000 0.500000
0.000000 -2.407753 0.000000 0.935972 -0.299377 0.185283 0.500000 0.375000
0.000000 -2.751338 -0.409886 0.935972 -0.299377 0.185283 0.463641 0.375000
1.770538 -0.656584 -0.298143 0.190507 0.000000 -0.981686 0.728397 0.330616
1.136527 -0.113045 -0.421179 0.190507 0.000000 -0.981686 0.820200 0.414278
1.770538 -0.431954 -0.298143 0.190507 0.000000 -0.981686 0.742772 0.379938
0.665002 -0.355738 -0.298143 -0.027494 -0.377816 0.925473 0.923760 0.331433
1.140912 -0.311958 -0.298143 -0.027494 -0.377816 0.925473 0.848521 0.358573
1.212635 -0.113045 -0.182796 -0.027494 -0.377816 0.925473 0.848327 0.385621
0.736724 0.000000 -0.182796 -0.027494 -0.377816 0.925473 0.954616 0.423828
0.736724 0.000000 -0.182796 0.159752 0.329772 0.930446 0.954616 0.423828
1.212635 -0.113045 -0.182796 0.159752 0.329772 0.930446 0.848327 0.385621
1.409634 0.107951 -0.336592 0.159752 0.329772 0.930446 0.823671 0.505360
0.656891 0.590106 -0.336592 0.159752 0.329772 0.930446 0.956400 0.553750
1.770538 -0.431954 -0.298143 0.354639 0.300123 0.885526 0.742772 0.379938
1.409634 0.107951 -0.336592 0.354639 0.300123 0.885526 0.823671 0.505360
1.212635 -0.113045 -0.182796 0.354639 0.300123 0.885526 0.848327 0.385621
0.656891 0.590106 -0.336592 0.085353 0.176191 -0.980649 0.956400 0.553750
1.409634 0.107951 -0.336592 0.085353 0.176191 -0.980649 0.823671 0.505360
1.136527 -0.113045 -0.421179 0.085353 0.176191 -0.980649 0.820200 0.414278
0.660616 0.000000 -0.421179 0.085353 0.176191 -0.980649 0.904860 0.433116
0.660616 0.000000 -0.421179 -0.029527 -0.405748 -0.913508 0.904860 0.433116
1.136527 -0.113045 -0.421179 -0.029527 -0.405748 -0.913508 0.820200 0.414278
1.140912 -0.311958 -0.298143 -0.029527 -0.405748 -0.913508 0.848521 0.358573
0.665002 -0.355738 -0.298143 -0.029527 -0.405748 -0.913508 0.923760 0.331433
1.212635 -0.113045 -0.182796 -0.232063 -0.423976 0.875438 0.848327 0.385621
1.140912 -0.311958 -0.298143 -0.232063 -0.423976 0.875438 0.848521 0.358573
1.770538 -0.656584 -0.298143 -0.232063 -0.423976 0.875438 0.728397 0.330616
1.770538 -0.656584 -0.298143 -0.278933 -0.509607 -0.813940 0.728397 0.330616
1.140912 -0.311958 -0.298143 -0.278933 -0.509607 -0.813940 0.848521 0.358573
1.136527 -0.113045 -0.421179 -0.278933 -0.509607 -0.813940 0.820200 0.414278
1.770538 -0.656584 -0.298143 0.202468 0.000000 0.979289 0.728397 0.330616
1.770538 -0.431954 -0.298143 0.202468 0.000000 0.979289 0.742772 0.379938
1.212635 -0.113045 -0.182796 0.202468 0.000000 0.979289 0.848327 0.385621
1.409634 0.107951 -0.336592 0.231051 0.085428 -0.969184 0.823671 0.505360
1.770538 -0.431954 -0.298143 0.231051 0.085428 -0.969184 0.742772 0.379938
1.136527 -0.113045 -0.421179 0.231051 0.085428 -0.969184 0.820200 0.414278
0.000000 0.000000 1.403186 0.562457 0.130285 0.816497 0.270208 0.247490
0.000000 -0.787375 1.528824 0.562457 0.130285 0.816497 0.290582 0.206854
0.109356 -0.222188 1.363308 0.562457 0.130285 0.816497 0.222623 0.284342
0.109356 0.000000 0.960122 0.957304 0.008527 0.288958 0.363003 0.233538
0.109356 0.000000 1.120399 0.957304 0.008527 0.288958 0.318047 0.255241
0.079721 -0.190963 1.063937 0.957304 0.008527 0.288958 0.332251 0.193521
0.173497 -0.190963 0.913540 0.957304 0.008527 0.288958 0.349303 0.203597
0.173497 -0.190963 0.913540 0.828446 -0.496961 0.258276 0.349303 0.203597
0.079721 -0.190963 1.063937 0.828446 -0.496961 0.258276 0.332251 0.193521
0.000000 -0.395076 1.077305 0.828446 -0.496961 0.258276 0.363220 0.123696
0.000000 -0.395076 0.926907 0.828446 -0.496961 0.258276 0.432979 0.122146
-0.000000 0.325583 0.939764 0.927571 0.362285 0.091445 0.373296 0.242457
-0.000000 0.244671 1.100041 0.927571 0.362285 0.091445 0.339967 0.268035
0.109356 0.000000 1.120399 0.927571 0.362285 0.091445 0.318047 0.255241
0.109356 0.000000 0.960122 0.927571 0.362285 0.091445 0.363003 0.233538
-0.000000 0.127021 1.224852 0.881459 0.384661 0.273981 0.304312 0.291288
0.000000 0.000000 1.403186 0.881459 0.384661 0.273981 0.270208 0.247490
0.109356 -0.222188 1.363308 0.881459 0.384661 0.273981 0.222623 0.284342
0.079721 -0.190963 1.063937 0.986573 -0.120512 -0.110233 0.332251 0.193521
0.109356 0.000000 1.120399 0.986573 -0.120512 -0.110233 0.318047 0.255241
0.109356 -0.222188 1.363308 0.986573 -0.120512 -0.110233 0.222623 0.284342
-0.000000 0.244671 1.100041 0.832275 0.407125 0.376255 0.339967 0.268035
-0.000000 0.127021 1.224852 0.832275 0.407125 0.376255 0.304312 0.291288
0.109356 -0.222188 1.363308 0.832275 0.407125 0.376255 0.222623 0.284342
0.109356 0.000000 1.120399 0.832275 0.407125 0.376255 0.318047 0.255241
0.000000 -0.395076 1.077305 0.920722 -0.368092 -0.129537 0.363220 0.123696
0.079721 -0.190963 1.063937 0.920722 -0.368092 -0.129537 0.332251 0.193521
0.109356 -0.222188 1.363308 0.920722 -0.368092 -0.129537 0.222623 0.284342
0.000000 -0.395076 1.077305 0.945675 -0.245421 -0.213232 0.306860 0.182826
0.109356 -0.222188 1.363308 0.945675 -0.245421 -0.213232 0.222623 0.284342
0.000000 -0.787375 1.528824 0.945675 -0.245421 -0.213232 0.290582 0.206854
4 0 1 2 3
4 4 5 6 7
4 8 9 10 11
4 12 13 14 15
4 16 17 18 19
4 20 21 22 23
7 24 25 26 27 28 29 30
7 31 32 33 34 35 36 37
4 38 39 40 41
4 42 43 44 45
4 46 47 48 49
4 50 51 52 53
4 54 55 56 57
5 58 59 60 61 62
6 63 64 65 66 67 68
4 69 70 71 72
4 73 74 75 76
4 77 78 79 80
4 81 82 83 84
4 85 86 87 88
4 89 90 91 92
4 93 94 95 96
4 97 98 99 100
4 101 102 103 104
3 105 106 107
3 108 109 110
4 111 112 113 114
4 115 116 117 118
4 119 120 121 122
4 123 124 125 126
3 127 128 129
4 130 131 132 133
3 114 113 134
4 135 136 137 138
3 139 72 71
4 140 141 142 143
3 144 145 146
3 147 148 149
3 150 151 152
3 153 154 155
3 156 157 158
4 159 160 161 162
3 163 164 165
4 166 167 168 169
4 170 171 172 173
3 174 175 176
4 177 178 179 180
4 181 182 183 184
3 185 186 187
3 188 189 190
3 191 192 193
3 194 195 196
3 197 198 199
4 200 201 202 203
4 204 205 206 207
4 208 209 210 211
3 212 213 214
3 215 216 217
4 218 219 220 221
3 222 223 224
3 225 226 227
4 228 229 230 231
4 232 233 234 235
4 236 237 238 239
4 240 241 242 243
4 244 245 246 247
4 248 249 250 251
7 252 253 254 255 256 257 258
7 259 260 261 262 263 264 265
4 266 267 268 269
4 270 271 272 273
4 274 275 276 277
4 278 279 280 281
4 282 283 284 285
5 286 287 288 289 290
6 291 292 293 294 295 296
4 297 298 299 300
4 301 302 303 304
4 305 306 307 308
4 309 310 311 312
4 313 314 315 316
4 317 318 319 320
4 321 322 323 324
4 325 326 327 328
4 329 330 331 332
3 333 334 335
3 336 337 338
4 339 340 341 342
4 343 344 345 346
4 347 348 349 350
4 351 352 353 354
3 355 356 357
4 358 359 360 361
3 340 362 341
4 363 364 365 366
3 367 299 298
4 368 369 370 371
3 372 373 374
3 375 376 377
3 378 379 380
3 381 382 383
3 384 385 386
4 387 388 389 390
3 391 392 393
4 394 395 396 397
4 398 399 400 401
3 402 403 404
4 405 406 407 408
4 409 410 411 412
3 413 414 415
3 416 417 418
3 419 420 421
3 422 423 424
3 425 426 427
4 428 429 430 431
4 432 433 434 435
4 436 437 438 439
3 440 441 442
3 443 444 445
4 446 447 448 449
3 450 451 452
3 453 454 455
