ply
format ascii 1.0
comment Created by Blender 2.83.3 - www.blender.org, source file: 'blahaj.blend'
element vertex 504
property float x
property float y
property float z
property float nx
property float ny
property float nz
property float s
property float t
element face 148
property list uchar uint vertex_indices
end_header
1.000000 0.000000 -0.745062 0.222111 0.354575 -0.908264 0.500000 0.750000
1.000000 0.703963 -0.478760 0.222111 0.354575 -0.908264 0.625000 0.750000
1.809395 0.388918 -0.395299 0.222111 0.354575 -0.908264 0.625000 0.750000
1.809395 0.000000 -0.555646 0.222111 0.354575 -0.908264 0.500000 0.750000
1.809395 -0.422696 -0.395299 0.292184 -0.331624 -0.897025 0.375000 0.750000
1.809395 0.000000 -0.555646 0.292184 -0.331624 -0.897025 0.500000 0.750000
2.232465 -0.115108 -0.371207 0.292184 -0.331624 -0.897025 0.500000 0.750000
2.246646 -0.306886 -0.299768 0.292184 -0.331624 -0.897025 0.375000 0.750000
0.000000 -0.948735 -0.000000 0.193872 -0.913449 -0.357805 0.250000 0.625000
0.000000 -0.727864 -0.546334 0.193872 -0.913449 -0.357805 0.375000 0.625000
1.000000 -0.548959 -0.478760 0.193872 -0.913449 -0.357805 0.375000 0.750000
1.000000 -0.729625 0.000000 0.193872 -0.913449 -0.357805 0.250000 0.750000
0.000000 0.000000 -0.795085 0.071125 0.323022 -0.943715 0.500000 0.625000
-0.000000 0.800772 -0.546334 0.071125 0.323022 -0.943715 0.625000 0.625000
1.000000 0.703963 -0.478760 0.071125 0.323022 -0.943715 0.625000 0.750000
1.000000 0.000000 -0.745062 0.071125 0.323022 -0.943715 0.500000 0.750000
-1.000000 -0.548959 -0.478760 -0.446205 -0.814272 -0.371297 0.375000 0.500000
-1.000000 -0.729625 -0.000000 -0.446205 -0.814272 -0.371297 0.250000 0.500000
-1.811599 -0.322526 -0.000000 -0.446205 -0.814272 -0.371297 0.250000 0.500000
-1.811599 -0.220675 -0.140816 -0.446205 -0.814272 -0.371297 0.375000 0.500000
1.809395 0.388918 -0.395299 0.611210 0.751691 -0.247756 0.625000 0.750000
1.809395 0.503222 0.000000 0.611210 0.751691 -0.247756 0.750000 0.750000
2.246646 0.163673 0.000000 0.611210 0.751691 -0.247756 0.750000 0.750000
2.246646 0.048884 -0.299768 0.611210 0.751691 -0.247756 0.625000 0.750000
0.000000 -0.727864 -0.546334 0.055880 -0.348635 -0.935591 0.375000 0.625000
0.000000 -0.421179 -0.660616 0.055880 -0.348635 -0.935591 0.432428 0.625000
0.590106 -0.336592 -0.656891 0.055880 -0.348635 -0.935591 0.442408 0.698662
-1.000000 -0.548959 -0.478760 -0.124808 -0.346451 -0.929728 0.375000 0.500000
0.000000 -0.421179 -0.660616 -0.124808 -0.346451 -0.929728 0.432428 0.625000
0.000000 -0.727864 -0.546334 -0.124808 -0.346451 -0.929728 0.375000 0.625000
-1.000000 -0.000000 -0.745062 -0.071125 0.323022 -0.943715 0.500000 0.500000
-1.000000 0.703963 -0.478760 -0.071125 0.323022 -0.943715 0.625000 0.500000
-0.000000 0.800772 -0.546334 -0.071125 0.323022 -0.943715 0.625000 0.625000
0.000000 0.000000 -0.795085 -0.071125 0.323022 -0.943715 0.500000 0.625000
1.000000 0.703963 -0.478760 0.361582 0.902822 -0.232745 0.625000 0.750000
1.000000 0.814989 0.000000 0.361582 0.902822 -0.232745 0.750000 0.750000
1.809395 0.503222 0.000000 0.361582 0.902822 -0.232745 0.750000 0.750000
1.809395 0.388918 -0.395299 0.361582 0.902822 -0.232745 0.625000 0.750000
-1.000000 -0.729625 -0.000000 -0.193872 -0.913449 -0.357805 0.250000 0.500000
-1.000000 -0.548959 -0.478760 -0.193872 -0.913449 -0.357805 0.375000 0.500000
0.000000 -0.727864 -0.546334 -0.193872 -0.913449 -0.357805 0.375000 0.625000
0.000000 -0.948735 -0.000000 -0.193872 -0.913449 -0.357805 0.250000 0.625000
1.000000 -0.548959 -0.478760 0.182582 -0.395286 -0.900229 0.375000 0.750000
1.000000 0.000000 -0.745062 0.182582 -0.395286 -0.900229 0.500000 0.750000
1.809395 0.000000 -0.555646 0.182582 -0.395286 -0.900229 0.500000 0.750000
1.809395 -0.422696 -0.395299 0.182582 -0.395286 -0.900229 0.375000 0.750000
1.000000 -0.729625 0.000000 0.170173 -0.916154 -0.362910 0.250000 0.750000
1.000000 -0.548959 -0.478760 0.170173 -0.916154 -0.362910 0.375000 0.750000
1.809395 -0.422696 -0.395299 0.170173 -0.916154 -0.362910 0.375000 0.750000
1.809395 -0.588264 0.000000 0.170173 -0.916154 -0.362910 0.250000 0.750000
-0.000000 0.800772 -0.546334 0.112247 0.944969 -0.307300 0.625000 0.625000
0.325583 0.939764 0.000000 0.112247 0.944969 -0.307300 0.750000 0.665698
1.000000 0.703963 -0.478760 0.112247 0.944969 -0.307300 0.625000 0.750000
-1.000000 0.703963 -0.478760 -0.113366 0.933427 -0.340386 0.625000 0.500000
-0.190963 0.913540 -0.173497 -0.113366 0.933427 -0.340386 0.709730 0.601259
-0.000000 0.800772 -0.546334 -0.113366 0.933427 -0.340386 0.625000 0.625000
-1.811599 0.273319 -0.000000 0.000000 0.971195 -0.238287 0.750000 0.500000
-1.811599 0.238769 -0.140816 0.000000 0.971195 -0.238287 0.625000 0.500000
-1.872708 0.238769 -0.140816 0.000000 0.971195 -0.238287 0.625000 0.500000
-2.063943 0.273319 -0.000000 0.000000 0.971195 -0.238287 0.750000 0.500000
-1.000000 0.814989 -0.000000 -0.545856 0.815666 -0.191650 0.750000 0.500000
-1.000000 0.703963 -0.478760 -0.545856 0.815666 -0.191650 0.625000 0.500000
-1.811599 0.238769 -0.140816 -0.545856 0.815666 -0.191650 0.625000 0.500000
-1.811599 0.273319 -0.000000 -0.545856 0.815666 -0.191650 0.750000 0.500000
-1.000000 -0.000000 -0.745062 -0.474878 -0.399970 -0.783910 0.500000 0.500000
-1.000000 -0.548959 -0.478760 -0.474878 -0.399970 -0.783910 0.375000 0.500000
-1.811599 -0.220675 -0.140816 -0.474878 -0.399970 -0.783910 0.375000 0.500000
-1.811599 0.002338 -0.268394 -0.474878 -0.399970 -0.783910 0.500000 0.500000
-1.000000 0.703963 -0.478760 -0.497202 0.335191 -0.800274 0.625000 0.500000
-1.000000 -0.000000 -0.745062 -0.497202 0.335191 -0.800274 0.500000 0.500000
-1.811599 0.002338 -0.268394 -0.497202 0.335191 -0.800274 0.500000 0.500000
-1.811599 0.238769 -0.140816 -0.497202 0.335191 -0.800274 0.625000 0.500000
2.246646 -0.306886 -0.299768 0.749843 -0.541278 -0.380465 0.375000 0.750000
2.435127 -0.112190 -0.168859 0.749843 -0.541278 -0.380465 0.500000 0.750000
2.539289 -0.112190 0.000000 0.749843 -0.541278 -0.380465 0.500000 0.875000
2.246646 -0.491987 0.000000 0.749843 -0.541278 -0.380465 0.375000 0.875000
2.435127 -0.112190 -0.168859 0.683745 0.658996 -0.313396 0.500000 0.750000
2.246646 0.048884 -0.299768 0.683745 0.658996 -0.313396 0.625000 0.750000
2.246646 0.163673 0.000000 0.683745 0.658996 -0.313396 0.625000 0.875000
2.539289 -0.112190 0.000000 0.683745 0.658996 -0.313396 0.500000 0.875000
1.809395 0.000000 -0.555646 0.447451 0.335966 -0.828803 0.500000 0.750000
1.809395 0.388918 -0.395299 0.447451 0.335966 -0.828803 0.625000 0.750000
2.246646 0.048884 -0.299768 0.447451 0.335966 -0.828803 0.625000 0.750000
2.232465 -0.115108 -0.371207 0.447451 0.335966 -0.828803 0.500000 0.750000
1.809395 -0.588264 0.000000 0.256819 -0.862865 -0.435326 0.250000 0.750000
1.809395 -0.422696 -0.395299 0.256819 -0.862865 -0.435326 0.375000 0.750000
2.246646 -0.306886 -0.299768 0.256819 -0.862865 -0.435326 0.375000 0.750000
2.246646 -0.491987 0.000000 0.256819 -0.862865 -0.435326 0.250000 0.750000
-1.872708 0.238769 -0.140816 -0.229319 0.202149 -0.952128 0.625000 0.500000
-1.872708 0.002338 -0.268394 -0.229319 0.202149 -0.952128 0.500000 0.500000
-2.112281 0.002338 -0.133313 -0.229319 0.202149 -0.952128 0.500000 0.500000
-2.193988 0.238769 -0.140816 -0.229319 0.202149 -0.952128 0.625000 0.500000
2.246646 -0.306886 -0.299768 0.692866 -0.206158 -0.690968 0.375000 0.750000
2.232465 -0.115108 -0.371207 0.692866 -0.206158 -0.690968 0.500000 0.750000
2.435127 -0.112190 -0.168859 0.692866 -0.206158 -0.690968 0.500000 0.750000
2.232465 -0.115108 -0.371207 0.684028 0.240804 -0.688563 0.500000 0.750000
2.246646 0.048884 -0.299768 0.684028 0.240804 -0.688563 0.625000 0.750000
2.435127 -0.112190 -0.168859 0.684028 0.240804 -0.688563 0.500000 0.750000
-1.811599 -0.220675 -0.140816 0.000000 -0.810267 -0.586061 0.375000 0.500000
-1.811599 -0.322526 -0.000000 0.000000 -0.810267 -0.586061 0.250000 0.500000
-2.122855 -0.322526 -0.000000 0.000000 -0.810267 -0.586061 0.250000 0.500000
-1.872708 -0.220675 -0.140816 0.000000 -0.810267 -0.586061 0.375000 0.500000
-1.811599 0.002338 -0.268394 0.000000 -0.496554 -0.868006 0.500000 0.500000
-1.811599 -0.220675 -0.140816 0.000000 -0.496554 -0.868006 0.375000 0.500000
-1.872708 -0.220675 -0.140816 0.000000 -0.496554 -0.868006 0.375000 0.500000
-1.872708 0.002338 -0.268394 0.000000 -0.496554 -0.868006 0.500000 0.500000
-1.811599 0.238769 -0.140816 0.000000 0.474875 -0.880053 0.625000 0.500000
-1.811599 0.002338 -0.268394 0.000000 0.474875 -0.880053 0.500000 0.500000
-1.872708 0.002338 -0.268394 0.000000 0.474875 -0.880053 0.500000 0.500000
-1.872708 0.238769 -0.140816 0.000000 0.474875 -0.880053 0.625000 0.500000
-2.407753 -0.000000 -0.000000 -0.183724 -0.181690 -0.966040 0.500000 0.375000
-2.945839 0.250321 -0.000000 -0.183724 -0.181690 -0.966040 0.536359 0.375000
-2.734370 0.800575 -0.088453 -0.183724 -0.181690 -0.966040 0.625000 0.453518
-2.193988 0.238769 -0.140816 -0.183724 -0.181690 -0.966040 0.625000 0.500000
-2.407753 -0.000000 -0.000000 -0.405809 0.178838 -0.896290 0.500000 0.375000
-2.112281 0.002338 -0.133313 -0.405809 0.178838 -0.896290 0.500000 0.500000
-2.193988 -0.220675 -0.140816 -0.405809 0.178838 -0.896290 0.375000 0.500000
-2.063943 0.273319 -0.000000 0.413119 0.387001 -0.824356 0.750000 0.500000
-2.193988 0.238769 -0.140816 0.413119 0.387001 -0.824356 0.625000 0.500000
-2.734370 0.800575 -0.088453 0.413119 0.387001 -0.824356 0.671482 0.500000
-2.734370 1.115574 -0.000000 0.413119 0.387001 -0.824356 0.750000 0.500000
-2.193988 -0.220675 -0.140816 0.000000 -0.810267 -0.586061 0.375000 0.500000
-1.872708 0.002338 -0.268394 -0.228741 -0.213770 -0.949726 0.500000 0.500000
-1.872708 -0.220675 -0.140816 -0.228741 -0.213770 -0.949726 0.375000 0.500000
-2.193988 -0.220675 -0.140816 -0.228741 -0.213770 -0.949726 0.375000 0.500000
-2.112281 0.002338 -0.133313 -0.228741 -0.213770 -0.949726 0.500000 0.500000
-2.193988 0.238769 -0.140816 -0.000000 0.971195 -0.238287 0.625000 0.500000
-2.193988 -0.220675 -0.140816 0.465130 -0.360273 -0.808615 0.375000 0.500000
-2.122855 -0.322526 -0.000000 0.465130 -0.360273 -0.808615 0.250000 0.500000
-2.379183 -0.775824 -0.000000 0.465130 -0.360273 -0.808615 0.250000 0.500000
-2.546276 -0.670655 -0.088453 0.465130 -0.360273 -0.808615 0.328518 0.500000
-2.193988 0.238769 -0.140816 -0.404293 -0.168252 -0.899021 0.625000 0.500000
-2.112281 0.002338 -0.133313 -0.404293 -0.168252 -0.899021 0.500000 0.500000
-2.407753 -0.000000 -0.000000 -0.404293 -0.168252 -0.899021 0.500000 0.375000
-3.091040 -0.659385 -0.000000 -0.152585 0.207751 -0.966208 0.375000 0.375000
-2.751338 -0.409886 -0.000000 -0.152585 0.207751 -0.966208 0.463641 0.375000
-2.546276 -0.670655 -0.088453 -0.152585 0.207751 -0.966208 0.375000 0.453518
-2.734370 0.800575 -0.088453 -0.200953 -0.079720 -0.976352 0.625000 0.453518
-2.945839 0.250321 -0.000000 -0.200953 -0.079720 -0.976352 0.536359 0.375000
-3.285542 1.106630 -0.000000 -0.200953 -0.079720 -0.976352 0.625000 0.375000
-2.546276 -0.670655 -0.088453 -0.121880 -0.745121 -0.655698 0.328518 0.500000
-2.379183 -0.775824 -0.000000 -0.121880 -0.745121 -0.655698 0.250000 0.500000
-3.091040 -0.659385 -0.000000 -0.121880 -0.745121 -0.655698 0.250000 0.500000
-2.734370 1.115574 -0.000000 -0.004387 0.270346 -0.962753 0.750000 0.500000
-2.734370 0.800575 -0.088453 -0.004387 0.270346 -0.962753 0.671482 0.500000
-3.285542 1.106630 -0.000000 -0.004387 0.270346 -0.962753 0.750000 0.500000
-2.546276 -0.670655 -0.088453 -0.299377 0.185283 -0.935972 0.375000 0.453518
-2.751338 -0.409886 -0.000000 -0.299377 0.185283 -0.935972 0.463641 0.375000
-2.407753 -0.000000 -0.000000 -0.299377 0.185283 -0.935972 0.500000 0.375000
-2.193988 -0.220675 -0.140816 -0.299377 0.185283 -0.935972 0.375000 0.500000
-0.656584 -0.298143 -1.770538 -0.000000 -0.981686 -0.190506 0.479914 0.025116
-0.431954 -0.298143 -1.770538 -0.000000 -0.981686 -0.190506 0.533470 0.103741
-0.113045 -0.421179 -1.136527 -0.000000 -0.981686 -0.190506 0.510225 0.115287
-0.355738 -0.298143 -0.665001 -0.377816 0.925472 0.027494 0.819209 0.237064
0.000000 -0.182796 -0.736724 -0.377816 0.925472 0.027494 0.787215 0.196851
-0.113045 -0.182796 -1.212635 -0.377816 0.925472 0.027494 0.787215 0.196851
-0.311958 -0.298143 -1.140912 -0.377816 0.925472 0.027494 0.792402 0.118099
0.000000 -0.182796 -0.736724 0.329772 0.930446 -0.159752 0.587334 0.143283
0.590106 -0.336592 -0.656891 0.329772 0.930446 -0.159752 0.574246 0.218310
0.107951 -0.336592 -1.409634 0.329772 0.930446 -0.159752 0.546968 0.234102
-0.113045 -0.182796 -1.212635 0.329772 0.930446 -0.159752 0.561492 0.065757
-0.431954 -0.298143 -1.770538 0.300123 0.885526 -0.354639 0.533470 0.103741
-0.113045 -0.182796 -1.212635 0.300123 0.885526 -0.354639 0.561492 0.065757
0.107951 -0.336592 -1.409634 0.300123 0.885526 -0.354639 0.546968 0.234102
0.590106 -0.336592 -0.656891 0.176191 -0.980649 -0.085353 0.687297 0.182213
0.000000 -0.421179 -0.660616 0.176191 -0.980649 -0.085353 0.761928 0.213970
-0.113045 -0.421179 -1.136527 0.176191 -0.980649 -0.085353 0.666730 0.122225
0.107951 -0.336592 -1.409634 0.176191 -0.980649 -0.085353 0.636749 0.168802
0.000000 -0.421179 -0.660616 -0.405748 -0.913508 0.029527 0.761928 0.213970
-0.355738 -0.298143 -0.665001 -0.405748 -0.913508 0.029527 0.819209 0.237064
-0.311958 -0.298143 -1.140912 -0.405748 -0.913508 0.029527 0.792402 0.118099
-0.113045 -0.421179 -1.136527 -0.405748 -0.913508 0.029527 0.666730 0.122225
-0.113045 -0.182796 -1.212635 -0.423976 0.875438 0.232063 0.787215 0.196851
-0.656584 -0.298143 -1.770538 -0.423976 0.875438 0.232063 0.642324 0.039364
-0.311958 -0.298143 -1.140912 -0.423976 0.875438 0.232063 0.792402 0.118099
-0.656584 -0.298143 -1.770538 -0.509607 -0.813939 0.278933 0.642324 0.039364
-0.113045 -0.421179 -1.136527 -0.509607 -0.813939 0.278933 0.666730 0.122225
-0.311958 -0.298143 -1.140912 -0.509607 -0.813939 0.278933 0.792402 0.118099
-0.656584 -0.298143 -1.770538 0.000000 0.979289 -0.202468 0.479914 0.025116
-0.113045 -0.182796 -1.212635 0.000000 0.979289 -0.202468 0.561492 0.065757
-0.431954 -0.298143 -1.770538 0.000000 0.979289 -0.202468 0.533470 0.103741
0.107951 -0.336592 -1.409634 0.085428 -0.969184 -0.231051 0.546968 0.234102
-0.113045 -0.421179 -1.136527 0.085428 -0.969184 -0.231051 0.510225 0.115287
-0.431954 -0.298143 -1.770538 0.085428 -0.969184 -0.231051 0.533470 0.103741
-0.000000 1.403186 0.000000 0.130285 0.816497 -0.562457 0.270208 0.247490
-0.222188 1.363308 -0.109356 0.130285 0.816497 -0.562457 0.334324 0.145177
-0.787375 1.528824 -0.000000 0.130285 0.816497 -0.562457 0.290582 0.206854
-0.000000 0.960122 -0.109356 0.008527 0.288958 -0.957304 0.426561 0.197884
-0.190963 0.913540 -0.173497 0.008527 0.288958 -0.957304 0.432238 0.155541
-0.190963 1.063937 -0.079721 0.008527 0.288958 -0.957304 0.375656 0.177244
-0.000000 1.120399 -0.109356 0.008527 0.288958 -0.957304 0.407958 0.212611
-0.190963 0.913540 -0.173497 -0.496961 0.258276 -0.828446 0.432238 0.155541
-0.395076 0.926907 -0.000000 -0.496961 0.258276 -0.828446 0.432979 0.122146
-0.395076 1.077305 -0.000000 -0.496961 0.258276 -0.828446 0.363220 0.123696
-0.190963 1.063937 -0.079721 -0.496961 0.258276 -0.828446 0.375656 0.177244
0.325583 0.939764 0.000000 0.362285 0.091445 -0.927571 0.373296 0.242457
-0.000000 0.960122 -0.109356 0.362285 0.091445 -0.927571 0.426561 0.197884
-0.000000 1.120399 -0.109356 0.362285 0.091445 -0.927571 0.407958 0.212611
0.244671 1.100041 0.000000 0.362285 0.091445 -0.927571 0.339967 0.268035
0.127021 1.224852 0.000000 0.384661 0.273981 -0.881459 0.304312 0.291288
-0.222188 1.363308 -0.109356 0.384661 0.273981 -0.881459 0.334324 0.145177
-0.000000 1.403186 0.000000 0.384661 0.273981 -0.881459 0.270208 0.247490
-0.190963 1.063937 -0.079721 -0.120512 -0.110233 -0.986573 0.375656 0.177244
-0.222188 1.363308 -0.109356 -0.120512 -0.110233 -0.986573 0.334324 0.145177
-0.000000 1.120399 -0.109356 -0.120512 -0.110233 -0.986573 0.407958 0.212611
0.244671 1.100041 0.000000 0.407125 0.376255 -0.832275 0.339967 0.268035
-0.000000 1.120399 -0.109356 0.407125 0.376255 -0.832275 0.407958 0.212611
-0.222188 1.363308 -0.109356 0.407125 0.376255 -0.832275 0.334324 0.145177
0.127021 1.224852 0.000000 0.407125 0.376255 -0.832275 0.304312 0.291288
-0.395076 1.077305 -0.000000 -0.368092 -0.129537 -0.920722 0.363220 0.123696
-0.222188 1.363308 -0.109356 -0.368092 -0.129537 -0.920722 0.334324 0.145177
-0.190963 1.063937 -0.079721 -0.368092 -0.129537 -0.920722 0.375656 0.177244
-0.395076 1.077305 -0.000000 -0.245421 -0.213232 -0.945675 0.306860 0.182826
-0.787375 1.528824 -0.000000 -0.245421 -0.213232 -0.945675 0.290582 0.206854
-0.222188 1.363308 -0.109356 -0.245421 -0.213232 -0.945675 0.334324 0.145177
1.000000 0.000000 0.745062 0.222111 0.354576 0.908264 0.500000 0.750000
1.809395 0.000000 0.555646 0.222111 0.354576 0.908264 0.500000 0.750000
1.809395 0.388918 0.395299 0.222111 0.354576 0.908264 0.625000 0.750000
1.000000 0.703963 0.478760 0.222111 0.354576 0.908264 0.625000 0.750000
1.809395 -0.422696 0.395299 0.292184 -0.331624 0.897025 0.375000 0.750000
2.246646 -0.306886 0.299768 0.292184 -0.331624 0.897025 0.375000 0.750000
2.232465 -0.115108 0.371207 0.292184 -0.331624 0.897025 0.500000 0.750000
1.809395 0.000000 0.555646 0.292184 -0.331624 0.897025 0.500000 0.750000
0.000000 -0.948735 -0.000000 0.193872 -0.913449 0.357805 0.250000 0.625000
1.000000 -0.729625 0.000000 0.193872 -0.913449 0.357805 0.250000 0.750000
1.000000 -0.548959 0.478760 0.193872 -0.913449 0.357805 0.375000 0.750000
0.000000 -0.727864 0.546334 0.193872 -0.913449 0.357805 0.375000 0.625000
-0.000000 -0.000000 0.795085 0.071125 0.323022 0.943715 0.500000 0.625000
1.000000 0.000000 0.745062 0.071125 0.323022 0.943715 0.500000 0.750000
1.000000 0.703963 0.478760 0.071125 0.323022 0.943715 0.625000 0.750000
-0.000000 0.800772 0.546334 0.071125 0.323022 0.943715 0.625000 0.625000
-1.000000 -0.548959 0.478760 -0.446205 -0.814272 0.371297 0.375000 0.500000
-1.811599 -0.220675 0.140816 -0.446205 -0.814272 0.371297 0.375000 0.500000
-1.811599 -0.322526 -0.000000 -0.446205 -0.814272 0.371297 0.250000 0.500000
-1.000000 -0.729625 -0.000000 -0.446205 -0.814272 0.371297 0.250000 0.500000
1.809395 0.388918 0.395299 0.611210 0.751691 0.247756 0.625000 0.750000
2.246646 0.048884 0.299768 0.611210 0.751691 0.247756 0.625000 0.750000
2.246646 0.163673 0.000000 0.611210 0.751691 0.247756 0.750000 0.750000
1.809395 0.503222 0.000000 0.611210 0.751691 0.247756 0.750000 0.750000
0.000000 -0.727864 0.546334 0.055880 -0.348635 0.935591 0.375000 0.625000
0.590106 -0.336592 0.656891 0.055880 -0.348635 0.935591 0.442408 0.698662
-0.000000 -0.421179 0.660616 0.055880 -0.348635 0.935591 0.432428 0.625000
-1.000000 -0.548959 0.478760 -0.126904 -0.360266 0.924177 0.375000 0.500000
0.000000 -0.727864 0.546334 -0.126904 -0.360266 0.924177 0.375000 0.625000
-0.355738 -0.298143 0.665001 -0.126904 -0.360266 0.924177 0.449368 0.580449
-1.000000 -0.000000 0.745062 -0.071125 0.323022 0.943715 0.500000 0.500000
-0.000000 -0.000000 0.795085 -0.071125 0.323022 0.943715 0.500000 0.625000
-0.000000 0.800772 0.546334 -0.071125 0.323022 0.943715 0.625000 0.625000
-1.000000 0.703963 0.478760 -0.071125 0.323022 0.943715 0.625000 0.500000
1.000000 0.703963 0.478760 0.361582 0.902822 0.232745 0.625000 0.750000
1.809395 0.388918 0.395299 0.361582 0.902822 0.232745 0.625000 0.750000
1.809395 0.503222 0.000000 0.361582 0.902822 0.232745 0.750000 0.750000
1.000000 0.814989 0.000000 0.361582 0.902822 0.232745 0.750000 0.750000
-1.000000 -0.729625 -0.000000 -0.193872 -0.913449 0.357805 0.250000 0.500000
0.000000 -0.948735 -0.000000 -0.193872 -0.913449 0.357805 0.250000 0.625000
0.000000 -0.727864 0.546334 -0.193872 -0.913449 0.357805 0.375000 0.625000
-1.000000 -0.548959 0.478760 -0.193872 -0.913449 0.357805 0.375000 0.500000
1.000000 -0.548959 0.478760 0.182582 -0.395286 0.900229 0.375000 0.750000
1.809395 -0.422696 0.395299 0.182582 -0.395286 0.900229 0.375000 0.750000
1.809395 0.000000 0.555646 0.182582 -0.395286 0.900229 0.500000 0.750000
1.000000 0.000000 0.745062 0.182582 -0.395286 0.900229 0.500000 0.750000
1.000000 -0.729625 0.000000 0.170172 -0.916154 0.362910 0.250000 0.750000
1.809395 -0.588264 0.000000 0.170172 -0.916154 0.362910 0.250000 0.750000
1.809395 -0.422696 0.395299 0.170172 -0.916154 0.362910 0.375000 0.750000
1.000000 -0.548959 0.478760 0.170172 -0.916154 0.362910 0.375000 0.750000
-0.000000 0.800772 0.546334 0.171247 0.925605 0.337534 0.625000 0.625000
0.325583 0.939764 0.000000 0.171247 0.925605 0.337534 0.750000 0.665698
-0.000000 0.960122 0.109356 0.171247 0.925605 0.337534 0.724980 0.625000
-1.000000 0.703963 0.478760 -0.113366 0.933427 0.340386 0.625000 0.500000
-0.000000 0.800772 0.546334 -0.113366 0.933427 0.340386 0.625000 0.625000
-0.190963 0.913540 0.173497 -0.113366 0.933427 0.340386 0.709730 0.601259
-1.811599 0.273319 -0.000000 -0.000000 0.971195 0.238287 0.750000 0.500000
-2.063943 0.273319 -0.000000 -0.000000 0.971195 0.238287 0.750000 0.500000
-1.872708 0.238769 0.140816 -0.000000 0.971195 0.238287 0.625000 0.500000
-1.811599 0.238769 0.140816 -0.000000 0.971195 0.238287 0.625000 0.500000
-1.000000 0.814989 -0.000000 -0.545856 0.815666 0.191650 0.750000 0.500000
-1.811599 0.273319 -0.000000 -0.545856 0.815666 0.191650 0.750000 0.500000
-1.811599 0.238769 0.140816 -0.545856 0.815666 0.191650 0.625000 0.500000
-1.000000 0.703963 0.478760 -0.545856 0.815666 0.191650 0.625000 0.500000
-1.000000 -0.000000 0.745062 -0.474878 -0.399970 0.783910 0.500000 0.500000
-1.811599 0.002338 0.268394 -0.474878 -0.399970 0.783910 0.500000 0.500000
-1.811599 -0.220675 0.140816 -0.474878 -0.399970 0.783910 0.375000 0.500000
-1.000000 -0.548959 0.478760 -0.474878 -0.399970 0.783910 0.375000 0.500000
-1.000000 0.703963 0.478760 -0.497202 0.335190 0.800274 0.625000 0.500000
-1.811599 0.238769 0.140816 -0.497202 0.335190 0.800274 0.625000 0.500000
-1.811599 0.002338 0.268394 -0.497202 0.335190 0.800274 0.500000 0.500000
-1.000000 -0.000000 0.745062 -0.497202 0.335190 0.800274 0.500000 0.500000
2.246646 -0.306886 0.299768 0.749843 -0.541278 0.380465 0.375000 0.750000
2.246646 -0.491987 0.000000 0.749843 -0.541278 0.380465 0.375000 0.875000
2.539289 -0.112190 0.000000 0.749843 -0.541278 0.380465 0.500000 0.875000
2.435127 -0.112190 0.168860 0.749843 -0.541278 0.380465 0.500000 0.750000
2.435127 -0.112190 0.168860 0.683745 0.658996 0.313396 0.500000 0.750000
2.539289 -0.112190 0.000000 0.683745 0.658996 0.313396 0.500000 0.875000
2.246646 0.163673 0.000000 0.683745 0.658996 0.313396 0.625000 0.875000
2.246646 0.048884 0.299768 0.683745 0.658996 0.313396 0.625000 0.750000
1.809395 0.000000 0.555646 0.447451 0.335966 0.828803 0.500000 0.750000
2.232465 -0.115108 0.371207 0.447451 0.335966 0.828803 0.500000 0.750000
2.246646 0.048884 0.299768 0.447451 0.335966 0.828803 0.625000 0.750000
1.809395 0.388918 0.395299 0.447451 0.335966 0.828803 0.625000 0.750000
1.809395 -0.588264 0.000000 0.256819 -0.862865 0.435326 0.250000 0.750000
2.246646 -0.491987 0.000000 0.256819 -0.862865 0.435326 0.250000 0.750000
2.246646 -0.306886 0.299768 0.256819 -0.862865 0.435326 0.375000 0.750000
1.809395 -0.422696 0.395299 0.256819 -0.862865 0.435326 0.375000 0.750000
-1.872708 0.238769 0.140816 -0.229319 0.202149 0.952128 0.625000 0.500000
-2.193988 0.238769 0.140816 -0.229319 0.202149 0.952128 0.625000 0.500000
-2.112281 0.002338 0.133312 -0.229319 0.202149 0.952128 0.500000 0.500000
-1.872708 0.002338 0.268394 -0.229319 0.202149 0.952128 0.500000 0.500000
2.246646 -0.306886 0.299768 0.692866 -0.206158 0.690968 0.375000 0.750000
2.435127 -0.112190 0.168860 0.692866 -0.206158 0.690968 0.500000 0.750000
2.232465 -0.115108 0.371207 0.692866 -0.206158 0.690968 0.500000 0.750000
2.232465 -0.115108 0.371207 0.684028 0.240804 0.688563 0.500000 0.750000
2.435127 -0.112190 0.168860 0.684028 0.240804 0.688563 0.500000 0.750000
2.246646 0.048884 0.299768 0.684028 0.240804 0.688563 0.625000 0.750000
-1.811599 -0.220675 0.140816 -0.000000 -0.810267 0.586061 0.375000 0.500000
-1.872708 -0.220675 0.140816 -0.000000 -0.810267 0.586061 0.375000 0.500000
-2.122855 -0.322526 -0.000000 -0.000000 -0.810267 0.586061 0.250000 0.500000
-1.811599 -0.322526 -0.000000 -0.000000 -0.810267 0.586061 0.250000 0.500000
-1.811599 0.002338 0.268394 0.000000 -0.496553 0.868006 0.500000 0.500000
-1.872708 0.002338 0.268394 0.000000 -0.496553 0.868006 0.500000 0.500000
-1.872708 -0.220675 0.140816 0.000000 -0.496553 0.868006 0.375000 0.500000
-1.811599 -0.220675 0.140816 0.000000 -0.496553 0.868006 0.375000 0.500000
-1.811599 0.238769 0.140816 0.000000 0.474875 0.880053 0.625000 0.500000
-1.872708 0.238769 0.140816 0.000000 0.474875 0.880053 0.625000 0.500000
-1.872708 0.002338 0.268394 0.000000 0.474875 0.880053 0.500000 0.500000
-1.811599 0.002338 0.268394 0.000000 0.474875 0.880053 0.500000 0.500000
-2.407753 -0.000000 -0.000000 -0.183724 -0.181690 0.966040 0.500000 0.375000
-2.193988 0.238769 0.140816 -0.183724 -0.181690 0.966040 0.625000 0.500000
-2.734370 0.800575 0.088453 -0.183724 -0.181690 0.966040 0.625000 0.453518
-2.945839 0.250321 -0.000000 -0.183724 -0.181690 0.966040 0.536359 0.375000
-2.407753 -0.000000 -0.000000 -0.405809 0.178838 0.896290 0.500000 0.375000
-2.193988 -0.220675 0.140816 -0.405809 0.178838 0.896290 0.375000 0.500000
-2.112281 0.002338 0.133312 -0.405809 0.178838 0.896290 0.500000 0.500000
-2.063943 0.273319 -0.000000 0.413119 0.387001 0.824356 0.750000 0.500000
-2.734370 1.115574 -0.000000 0.413119 0.387001 0.824356 0.750000 0.500000
-2.734370 0.800575 0.088453 0.413119 0.387001 0.824356 0.671482 0.500000
-2.193988 0.238769 0.140816 0.413119 0.387001 0.824356 0.625000 0.500000
-2.193988 -0.220675 0.140816 0.000000 -0.810267 0.586061 0.375000 0.500000
-1.872708 0.002338 0.268394 -0.228741 -0.213770 0.949726 0.500000 0.500000
-2.112281 0.002338 0.133312 -0.228741 -0.213770 0.949726 0.500000 0.500000
-2.193988 -0.220675 0.140816 -0.228741 -0.213770 0.949726 0.375000 0.500000
-1.872708 -0.220675 0.140816 -0.228741 -0.213770 0.949726 0.375000 0.500000
-2.193988 0.238769 0.140816 -0.000000 0.971195 0.238287 0.625000 0.500000
-2.193988 -0.220675 0.140816 0.465130 -0.360273 0.808615 0.375000 0.500000
-2.546276 -0.670655 0.088453 0.465130 -0.360273 0.808615 0.328518 0.500000
-2.379183 -0.775824 -0.000000 0.465130 -0.360273 0.808615 0.250000 0.500000
-2.122855 -0.322526 -0.000000 0.465130 -0.360273 0.808615 0.250000 0.500000
-2.193988 0.238769 0.140816 -0.404294 -0.168252 0.899021 0.625000 0.500000
-2.407753 -0.000000 -0.000000 -0.404294 -0.168252 0.899021 0.500000 0.375000
-2.112281 0.002338 0.133312 -0.404294 -0.168252 0.899021 0.500000 0.500000
-3.091040 -0.659385 -0.000000 -0.152585 0.207751 0.966208 0.375000 0.375000
-2.546276 -0.670655 0.088453 -0.152585 0.207751 0.966208 0.375000 0.453518
-2.751338 -0.409886 -0.000000 -0.152585 0.207751 0.966208 0.463641 0.375000
-2.734370 0.800575 0.088453 -0.200953 -0.079720 0.976352 0.625000 0.453518
-3.285542 1.106630 -0.000000 -0.200953 -0.079720 0.976352 0.625000 0.375000
-2.945839 0.250321 -0.000000 -0.200953 -0.079720 0.976352 0.536359 0.375000
-2.546276 -0.670655 0.088453 -0.121880 -0.745121 0.655698 0.328518 0.500000
-3.091040 -0.659385 -0.000000 -0.121880 -0.745121 0.655698 0.250000 0.500000
-2.379183 -0.775824 -0.000000 -0.121880 -0.745121 0.655698 0.250000 0.500000
-2.734370 1.115574 -0.000000 -0.004387 0.270346 0.962753 0.750000 0.500000
-3.285542 1.106630 -0.000000 -0.004387 0.270346 0.962753 0.750000 0.500000
-2.734370 0.800575 0.088453 -0.004387 0.270346 0.962753 0.671482 0.500000
-2.546276 -0.670655 0.088453 -0.299377 0.185283 0.935972 0.375000 0.453518
-2.193988 -0.220675 0.140816 -0.299377 0.185283 0.935972 0.375000 0.500000
-2.407753 -0.000000 -0.000000 -0.299377 0.185283 0.935972 0.500000 0.375000
-2.751338 -0.409886 -0.000000 -0.299377 0.185283 0.935972 0.463641 0.375000
-0.656584 -0.298143 1.770538 0.000000 -0.981686 0.190506 0.728397 0.330616
-0.113045 -0.421179 1.136527 0.000000 -0.981686 0.190506 0.820200 0.414278
-0.431954 -0.298143 1.770538 0.000000 -0.981686 0.190506 0.742772 0.379938
-0.355738 -0.298143 0.665001 -0.377816 0.925472 -0.027494 0.923760 0.331433
-0.311959 -0.298143 1.140912 -0.377816 0.925472 -0.027494 0.848521 0.358573
-0.113045 -0.182796 1.212635 -0.377816 0.925472 -0.027494 0.848327 0.385621
-0.000000 -0.182796 0.736724 -0.377816 0.925472 -0.027494 0.954616 0.423828
-0.000000 -0.182796 0.736724 0.329772 0.930446 0.159753 0.954616 0.423828
-0.113045 -0.182796 1.212635 0.329772 0.930446 0.159753 0.848327 0.385621
0.107951 -0.336592 1.409634 0.329772 0.930446 0.159753 0.823671 0.505360
0.590106 -0.336592 0.656891 0.329772 0.930446 0.159753 0.956400 0.553750
-0.431954 -0.298143 1.770538 0.300123 0.885526 0.354639 0.742772 0.379938
0.107951 -0.336592 1.409634 0.300123 0.885526 0.354639 0.823671 0.505360
-0.113045 -0.182796 1.212635 0.300123 0.885526 0.354639 0.848327 0.385621
0.590106 -0.336592 0.656891 0.176191 -0.980649 0.085353 0.956400 0.553750
0.107951 -0.336592 1.409634 0.176191 -0.980649 0.085353 0.823671 0.505360
-0.113045 -0.421179 1.136527 0.176191 -0.980649 0.085353 0.820200 0.414278
-0.000000 -0.421179 0.660616 0.176191 -0.980649 0.085353 0.904860 0.433116
-0.000000 -0.421179 0.660616 -0.405748 -0.913508 -0.029527 0.904860 0.433116
-0.113045 -0.421179 1.136527 -0.405748 -0.913508 -0.029527 0.820200 0.414278
-0.311959 -0.298143 1.140912 -0.405748 -0.913508 -0.029527 0.848521 0.358573
-0.355738 -0.298143 0.665001 -0.405748 -0.913508 -0.029527 0.923760 0.331433
-0.113045 -0.182796 1.212635 -0.423976 0.875438 -0.232063 0.848327 0.385621
-0.311959 -0.298143 1.140912 -0.423976 0.875438 -0.232063 0.848521 0.358573
-0.656584 -0.298143 1.770538 -0.423976 0.875438 -0.232063 0.728397 0.330616
-0.656584 -0.298143 1.770538 -0.509607 -0.813939 -0.278933 0.728397 0.330616
-0.311959 -0.298143 1.140912 -0.509607 -0.813939 -0.278933 0.848521 0.358573
-0.113045 -0.421179 1.136527 -0.509607 -0.813939 -0.278933 0.820200 0.414278
-0.656584 -0.298143 1.770538 0.000000 0.979289 0.202468 0.728397 0.330616
-0.431954 -0.298143 1.770538 0.000000 0.979289 0.202468 0.742772 0.379938
-0.113045 -0.182796 1.212635 0.000000 0.979289 0.202468 0.848327 0.385621
0.107951 -0.336592 1.409634 0.085428 -0.969184 0.231051 0.823671 0.505360
-0.431954 -0.298143 1.770538 0.085428 -0.969184 0.231051 0.742772 0.379938
-0.113045 -0.421179 1.136527 0.085428 -0.969184 0.231051 0.820200 0.414278
-0.000000 1.403186 0.000000 0.130285 0.816497 0.562457 0.270208 0.247490
-0.787375 1.528824 -0.000000 0.130285 0.816497 0.562457 0.290582 0.206854
-0.222188 1.363308 0.109356 0.130285 0.816497 0.562457 0.222623 0.284342
-0.000000 0.960122 0.109356 0.008527 0.288957 0.957304 0.363003 0.233538
-0.000000 1.120399 0.109356 0.008527 0.288957 0.957304 0.318047 0.255241
-0.190963 1.063937 0.079721 0.008527 0.288957 0.957304 0.332251 0.193521
-0.190963 0.913540 0.173497 0.008527 0.288957 0.957304 0.349303 0.203597
-0.190963 0.913540 0.173497 -0.496961 0.258276 0.828446 0.349303 0.203597
-0.190963 1.063937 0.079721 -0.496961 0.258276 0.828446 0.332251 0.193521
-0.395076 1.077305 -0.000000 -0.496961 0.258276 0.828446 0.363220 0.123696
-0.395076 0.926907 -0.000000 -0.496961 0.258276 0.828446 0.432979 0.122146
0.325583 0.939764 0.000000 0.362285 0.091445 0.927571 0.373296 0.242457
0.244671 1.100041 0.000000 0.362285 0.091445 0.927571 0.339967 0.268035
-0.000000 1.120399 0.109356 0.362285 0.091445 0.927571 0.318047 0.255241
-0.000000 0.960122 0.109356 0.362285 0.091445 0.927571 0.363003 0.233538
0.127021 1.224852 0.000000 0.384661 0.273981 0.881459 0.304312 0.291288
-0.000000 1.403186 0.000000 0.384661 0.273981 0.881459 0.270208 0.247490
-0.222188 1.363308 0.109356 0.384661 0.273981 0.881459 0.222623 0.284342
-0.190963 1.063937 0.079721 -0.120512 -0.110233 0.986573 0.332251 0.193521
-0.000000 1.120399 0.109356 -0.120512 -0.110233 0.986573 0.318047 0.255241
-0.222188 1.363308 0.109356 -0.120512 -0.110233 0.986573 0.222623 0.284342
0.244671 1.100041 0.000000 0.407125 0.376255 0.832275 0.339967 0.268035
0.127021 1.224852 0.000000 0.407125 0.376255 0.832275 0.304312 0.291288
-0.222188 1.363308 0.109356 0.407125 0.376255 0.832275 0.222623 0.284342
-0.000000 1.120399 0.109356 0.407125 0.376255 0.832275 0.318047 0.255241
-0.395076 1.077305 -0.000000 -0.368092 -0.129537 0.920722 0.363220 0.123696
-0.190963 1.063937 0.079721 -0.368092 -0.129537 0.920722 0.332251 0.193521
-0.222188 1.363308 0.109356 -0.368092 -0.129537 0.920722 0.222623 0.284342
-0.395076 1.077305 -0.000000 -0.245421 -0.213232 0.945675 0.306860 0.182826
-0.222188 1.363308 0.109356 -0.245421 -0.213232 0.945675 0.222623 0.284342
-0.787375 1.528824 -0.000000 -0.245421 -0.213232 0.945675 0.290582 0.206854
1.000000 -0.548959 -0.478760 0.162674 -0.430645 -0.887740 0.375000 0.750000
0.590106 -0.336592 -0.656891 0.162674 -0.430645 -0.887740 0.442408 0.698662
1.000000 0.000000 -0.745062 0.162674 -0.430645 -0.887740 0.500000 0.750000
1.000000 0.000000 -0.745062 0.047550 -0.306903 -0.950552 0.500000 0.750000
0.590106 -0.336592 -0.656891 0.047550 -0.306903 -0.950552 0.442408 0.698662
0.000000 0.000000 -0.795085 0.047550 -0.306903 -0.950552 0.500000 0.625000
0.000000 0.000000 -0.795085 0.049549 -0.303769 -0.951456 0.500000 0.625000
0.590106 -0.336592 -0.656891 0.049549 -0.303769 -0.951456 0.442408 0.698662
0.000000 -0.182796 -0.736724 0.049549 -0.303769 -0.951456 0.470673 0.625000
0.590106 -0.336592 -0.656891 0.141700 -0.461203 -0.875907 0.442408 0.698662
1.000000 -0.548959 -0.478760 0.141700 -0.461203 -0.875907 0.375000 0.750000
0.000000 -0.727864 -0.546334 0.141700 -0.461203 -0.875907 0.375000 0.625000
-0.355738 -0.298143 -0.665001 -0.093043 -0.302824 -0.948494 0.449368 0.580449
0.000000 0.000000 -0.795085 -0.093043 -0.302824 -0.948494 0.500000 0.625000
0.000000 -0.182796 -0.736724 -0.093043 -0.302824 -0.948494 0.470673 0.625000
0.000000 0.000000 -0.795085 -0.046762 -0.352072 -0.934804 0.500000 0.625000
-0.355738 -0.298143 -0.665001 -0.046762 -0.352072 -0.934804 0.449368 0.580449
-1.000000 -0.000000 -0.745062 -0.046762 -0.352072 -0.934804 0.500000 0.500000
0.000000 -0.421179 -0.660616 -0.118942 -0.376643 -0.918691 0.432428 0.625000
-1.000000 -0.548959 -0.478760 -0.118942 -0.376643 -0.918691 0.375000 0.500000
-0.355738 -0.298143 -0.665001 -0.118942 -0.376643 -0.918691 0.449368 0.580449
-0.355738 -0.298143 -0.665001 -0.089808 -0.434695 -0.896088 0.449368 0.580449
-1.000000 -0.548959 -0.478760 -0.089808 -0.434695 -0.896088 0.375000 0.500000
-1.000000 -0.000000 -0.745062 -0.089808 -0.434695 -0.896088 0.500000 0.500000
0.590106 -0.336592 0.656891 0.047550 -0.306903 0.950552 0.442408 0.698662
1.000000 0.000000 0.745062 0.047550 -0.306903 0.950552 0.500000 0.750000
-0.000000 -0.000000 0.795085 0.047550 -0.306903 0.950552 0.500000 0.625000
1.000000 0.000000 0.745062 0.162674 -0.430645 0.887740 0.500000 0.750000
0.590106 -0.336592 0.656891 0.162674 -0.430645 0.887740 0.442408 0.698662
1.000000 -0.548959 0.478760 0.162674 -0.430645 0.887740 0.375000 0.750000
-0.000000 -0.000000 0.795085 0.049549 -0.303769 0.951456 0.500000 0.625000
-0.000000 -0.182796 0.736724 0.049549 -0.303769 0.951456 0.470673 0.625000
0.590106 -0.336592 0.656891 0.049549 -0.303769 0.951456 0.442408 0.698662
0.590106 -0.336592 0.656891 0.141700 -0.461202 0.875907 0.442408 0.698662
0.000000 -0.727864 0.546334 0.141700 -0.461202 0.875907 0.375000 0.625000
1.000000 -0.548959 0.478760 0.141700 -0.461202 0.875907 0.375000 0.750000
-0.355738 -0.298143 0.665001 -0.108572 -0.347117 0.931516 0.449368 0.580449
0.000000 -0.727864 0.546334 -0.108572 -0.347117 0.931516 0.375000 0.625000
-0.000000 -0.421179 0.660616 -0.108572 -0.347117 0.931516 0.432428 0.625000
-0.355738 -0.298143 0.665001 -0.093043 -0.302824 0.948494 0.449368 0.580449
-0.000000 -0.182796 0.736724 -0.093043 -0.302824 0.948494 0.470673 0.625000
-0.000000 -0.000000 0.795085 -0.093043 -0.302824 0.948494 0.500000 0.625000
-0.000000 -0.000000 0.795085 -0.046762 -0.352072 0.934804 0.500000 0.625000
-1.000000 -0.000000 0.745062 -0.046762 -0.352072 0.934804 0.500000 0.500000
-0.355738 -0.298143 0.665001 -0.046762 -0.352072 0.934804 0.449368 0.580449
-1.000000 -0.000000 0.745062 -0.089809 -0.434695 0.896088 0.500000 0.500000
-1.000000 -0.548959 0.478760 -0.089809 -0.434695 0.896088 0.375000 0.500000
-0.355738 -0.298143 0.665001 -0.089809 -0.434695 0.896088 0.449368 0.580449
-1.000000 0.814989 -0.000000 -0.174735 0.944456 0.278336 0.750000 0.500000
-0.190963 0.913540 0.173497 -0.174735 0.944456 0.278336 0.709730 0.601259
-0.395076 0.926907 -0.000000 -0.174735 0.944456 0.278336 0.750000 0.575616
-0.000000 0.960122 0.109356 -0.113366 0.933427 0.340386 0.724980 0.625000
-0.190963 0.913540 0.173497 -0.164823 0.960825 0.222819 0.709730 0.601259
-1.000000 0.814989 -0.000000 -0.164823 0.960825 0.222819 0.750000 0.500000
-1.000000 0.703963 0.478760 -0.164823 0.960825 0.222819 0.625000 0.500000
0.325583 0.939764 0.000000 0.177370 0.958703 0.222327 0.750000 0.665698
1.000000 0.703963 0.478760 0.177370 0.958703 0.222327 0.625000 0.750000
1.000000 0.814989 0.000000 0.177370 0.958703 0.222327 0.750000 0.750000
1.000000 0.703963 0.478760 0.112247 0.944969 0.307300 0.625000 0.750000
0.325583 0.939764 0.000000 0.112247 0.944969 0.307300 0.750000 0.665698
-0.000000 0.800772 0.546334 0.112247 0.944969 0.307300 0.625000 0.625000
-0.190963 0.913540 -0.173497 -0.164823 0.960825 -0.222819 0.709730 0.601259
-1.000000 0.703963 -0.478760 -0.164823 0.960825 -0.222819 0.625000 0.500000
-1.000000 0.814989 -0.000000 -0.164823 0.960825 -0.222819 0.750000 0.500000
-1.000000 0.814989 -0.000000 -0.174735 0.944456 -0.278336 0.750000 0.500000
-0.395076 0.926907 -0.000000 -0.174735 0.944456 -0.278336 0.750000 0.575616
-0.190963 0.913540 -0.173497 -0.174735 0.944456 -0.278336 0.709730 0.601259
-0.000000 0.960122 -0.109356 -0.113366 0.933427 -0.340386 0.724980 0.625000
0.325583 0.939764 0.000000 0.171247 0.925605 -0.337534 0.750000 0.665698
-0.000000 0.800772 -0.546334 0.171247 0.925605 -0.337534 0.625000 0.625000
-0.000000 0.960122 -0.109356 0.171247 0.925605 -0.337534 0.724980 0.625000
1.000000 0.703963 -0.478760 0.177370 0.958703 -0.222327 0.625000 0.750000
0.325583 0.939764 0.000000 0.177370 0.958703 -0.222327 0.750000 0.665698
1.000000 0.814989 0.000000 0.177370 0.958703 -0.222327 0.750000 0.750000
4 0 1 2 3
4 4 5 6 7
4 8 9 10 11
4 12 13 14 15
4 16 17 18 19
4 20 21 22 23
3 24 25 26
3 27 28 29
4 30 31 32 33
4 34 35 36 37
4 38 39 40 41
4 42 43 44 45
4 46 47 48 49
3 50 51 52
3 53 54 55
4 56 57 58 59
4 60 61 62 63
4 64 65 66 67
4 68 69 70 71
4 72 73 74 75
4 76 77 78 79
4 80 81 82 83
4 84 85 86 87
4 88 89 90 91
3 92 93 94
3 95 96 97
4 98 99 100 101
4 102 103 104 105
4 106 107 108 109
4 110 111 112 113
3 114 115 116
4 117 118 119 120
3 101 100 121
4 122 123 124 125
3 126 59 58
4 127 128 129 130
3 131 132 133
3 134 135 136
3 137 138 139
3 140 141 142
3 143 144 145
4 146 147 148 149
3 150 151 152
4 153 154 155 156
4 157 158 159 160
3 161 162 163
4 164 165 166 167
4 168 169 170 171
3 172 173 174
3 175 176 177
3 178 179 180
3 181 182 183
3 184 185 186
4 187 188 189 190
4 191 192 193 194
4 195 196 197 198
3 199 200 201
3 202 203 204
4 205 206 207 208
3 209 210 211
3 212 213 214
4 215 216 217 218
4 219 220 221 222
4 223 224 225 226
4 227 228 229 230
4 231 232 233 234
4 235 236 237 238
3 239 240 241
3 242 243 244
4 245 246 247 248
4 249 250 251 252
4 253 254 255 256
4 257 258 259 260
4 261 262 263 264
3 265 266 267
3 268 269 270
4 271 272 273 274
4 275 276 277 278
4 279 280 281 282
4 283 284 285 286
4 287 288 289 290
4 291 292 293 294
4 295 296 297 298
4 299 300 301 302
4 303 304 305 306
3 307 308 309
3 310 311 312
4 313 314 315 316
4 317 318 319 320
4 321 322 323 324
4 325 326 327 328
3 329 330 331
4 332 333 334 335
3 314 336 315
4 337 338 339 340
3 341 273 272
4 342 343 344 345
3 346 347 348
3 349 350 351
3 352 353 354
3 355 356 357
3 358 359 360
4 361 362 363 364
3 365 366 367
4 368 369 370 371
4 372 373 374 375
3 376 377 378
4 379 380 381 382
4 383 384 385 386
3 387 388 389
3 390 391 392
3 393 394 395
3 396 397 398
3 399 400 401
4 402 403 404 405
4 406 407 408 409
4 410 411 412 413
3 414 415 416
3 417 418 419
4 420 421 422 423
3 424 425 426
3 427 428 429
3 430 431 432
3 433 434 435
3 436 437 438
3 439 440 441
3 442 443 444
3 445 446 447
3 448 449 450
3 451 452 453
3 454 455 456
3 457 458 459
3 460 461 462
3 463 464 465
3 466 467 468
3 469 470 471
3 472 473 474
3 475 476 477
3 478 479 480
3 270 269 481
3 482 483 484
3 485 486 487
3 488 489 490
3 491 492 493
3 494 495 496
3 55 54 497
3 498 499 500
3 501 502 503
