ply
format ascii 1.0
comment Created by Blender 2.83.3 - www.blender.org, source file: 'pebble.blend'
element vertex 71
property float x
property float y
property float z
property float nx
property float ny
property float nz
property float s
property float t
element face 32
property list uchar uint vertex_indices
end_header
0.000000 -0.287380 0.301757 0.000000 -0.471961 0.881619 0.000000 0.000000
0.000000 -0.884043 -0.017658 0.000000 -0.471961 0.881619 0.000000 0.000000
0.287380 -0.287380 0.301757 0.000000 -0.471961 0.881619 0.000000 0.000000
0.000000 0.000000 0.423772 0.000000 -0.390813 0.920470 0.000000 0.000000
-0.287380 -0.287380 0.301757 0.000000 -0.390813 0.920470 0.000000 0.000000
0.000000 -0.287380 0.301757 0.000000 -0.390813 0.920470 0.312500 0.375000
0.287380 0.287380 0.301757 0.249101 0.156678 0.955720 0.625000 0.500000
0.000000 0.000000 0.423772 0.249101 0.156678 0.955720 0.000000 0.000000
0.468135 0.000000 0.301757 0.249101 0.156678 0.955720 0.625000 0.625000
-0.043622 0.000000 -0.017658 -0.000000 0.000000 -1.000000 0.500000 0.375000
0.110570 0.824394 -0.017658 -0.000000 0.000000 -1.000000 0.500000 0.375000
0.429626 0.604114 -0.017658 -0.000000 0.000000 -1.000000 0.500000 0.500000
0.287380 0.287380 0.301757 -0.000000 0.390813 0.920470 0.625000 0.500000
0.000000 0.287380 0.301757 -0.000000 0.390813 0.920470 0.312500 0.250000
0.000000 0.000000 0.423772 -0.000000 0.390813 0.920470 0.000000 0.000000
0.000000 0.287380 0.301757 0.000000 0.511204 0.859460 0.000000 0.000000
0.110570 0.824394 -0.017658 0.000000 0.511204 0.859460 0.000000 0.000000
-0.287380 0.287380 0.301757 0.000000 0.511204 0.859460 0.000000 0.000000
0.000000 0.000000 0.423772 -0.390813 0.000000 0.920470 0.000000 0.000000
-0.287380 0.000000 0.301757 -0.390813 0.000000 0.920470 0.000000 0.000000
-0.287380 -0.287380 0.301757 -0.390813 0.000000 0.920470 0.000000 0.000000
-0.966622 0.245753 -0.017658 -0.475868 -0.202980 0.855774 0.000000 0.000000
-0.604114 -0.604114 -0.017658 -0.475868 -0.202980 0.855774 0.000000 0.000000
-0.287380 0.000000 0.301757 -0.475868 -0.202980 0.855774 0.000000 0.000000
0.965247 0.000000 -0.017658 0.514379 -0.307491 0.800540 0.500000 0.625000
0.468135 0.000000 0.301757 0.514379 -0.307491 0.800540 0.625000 0.625000
0.604114 -0.604114 -0.017658 0.514379 -0.307491 0.800540 0.500000 0.750000
0.429626 0.604114 -0.017658 0.487472 0.432204 0.758664 0.500000 0.500000
0.468135 0.000000 0.301757 0.487472 0.432204 0.758664 0.625000 0.625000
0.965247 0.000000 -0.017658 0.487472 0.432204 0.758664 0.500000 0.625000
-0.604114 0.604114 -0.017658 -0.408178 0.412902 0.814188 0.000000 0.000000
-0.966622 0.245753 -0.017658 -0.408178 0.412902 0.814188 0.000000 0.000000
-0.287380 0.287380 0.301757 -0.408178 0.412902 0.814188 0.000000 0.000000
0.000000 -0.884043 -0.017658 -0.000000 -0.000000 -1.000000 0.500000 0.375000
0.604114 -0.604114 -0.017658 -0.000000 -0.000000 -1.000000 0.500000 0.750000
-0.604114 -0.604114 -0.017658 -0.000000 -0.000000 -1.000000 0.500000 0.000000
-0.966622 0.245753 -0.017658 -0.000000 -0.000000 -1.000000 0.500000 0.125000
0.287380 0.287380 0.301757 0.388127 0.562165 0.730293 0.000000 0.000000
0.429626 0.604114 -0.017658 0.388127 0.562165 0.730293 0.000000 0.000000
0.110570 0.824394 -0.017658 0.388127 0.562165 0.730293 0.000000 0.000000
-0.604114 0.604114 -0.017658 -0.000000 0.000000 -1.000000 0.500000 0.250000
-0.287380 -0.287380 0.301757 0.000000 -0.471961 0.881619 0.000000 0.000000
0.604114 -0.604114 -0.017658 0.499700 -0.314298 0.807166 0.500000 0.750000
0.468135 0.000000 0.301757 0.499700 -0.314298 0.807166 0.625000 0.625000
0.287380 -0.287380 0.301757 0.499700 -0.314298 0.807166 0.625000 0.750000
0.468135 0.000000 0.301757 0.627650 0.394775 0.670975 0.625000 0.625000
0.429626 0.604114 -0.017658 0.627650 0.394775 0.670975 0.500000 0.500000
0.287380 0.287380 0.301757 0.627650 0.394775 0.670975 0.625000 0.500000
0.468135 0.000000 0.301757 0.249101 -0.156678 0.955720 0.625000 0.625000
0.000000 0.000000 0.423772 0.249101 -0.156678 0.955720 0.000000 0.000000
0.287380 -0.287380 0.301757 0.249101 -0.156678 0.955720 0.625000 0.750000
-0.287380 0.000000 0.301757 -0.710080 0.000000 0.704121 0.000000 0.000000
-0.604114 -0.604114 -0.017658 -0.710080 0.000000 0.704121 0.000000 0.000000
-0.287380 -0.287380 0.301757 -0.710080 0.000000 0.704121 0.000000 0.000000
-0.287380 0.287380 0.301757 -0.425548 0.000000 0.904936 0.000000 0.000000
-0.966622 0.245753 -0.017658 -0.425548 0.000000 0.904936 0.000000 0.000000
-0.287380 0.000000 0.301757 -0.425548 0.000000 0.904936 0.000000 0.000000
-0.287380 0.287380 0.301757 -0.184931 0.599994 0.778337 0.000000 0.000000
0.110570 0.824394 -0.017658 -0.184931 0.599994 0.778337 0.000000 0.000000
-0.604114 0.604114 -0.017658 -0.184931 0.599994 0.778337 0.000000 0.000000
0.287380 0.287380 0.301757 0.000000 0.511204 0.859460 0.000000 0.000000
0.000000 -0.884043 -0.017658 -0.254294 -0.548790 0.796344 0.000000 0.000000
-0.287380 -0.287380 0.301757 -0.254294 -0.548790 0.796344 0.000000 0.000000
-0.604114 -0.604114 -0.017658 -0.254294 -0.548790 0.796344 0.000000 0.000000
0.287380 -0.287380 0.301757 0.254294 -0.548790 0.796344 0.000000 0.000000
0.000000 -0.884043 -0.017658 0.254294 -0.548790 0.796344 0.000000 0.000000
0.604114 -0.604114 -0.017658 0.254294 -0.548790 0.796344 0.000000 0.000000
0.965247 0.000000 -0.017658 -0.000000 -0.000000 -1.000000 0.500000 0.625000
-0.287380 0.287380 0.301757 -0.000000 0.390813 0.920470 0.000000 0.000000
-0.287380 0.287380 0.301757 -0.390813 0.000000 0.920470 0.000000 0.000000
0.287380 -0.287380 0.301757 0.000000 -0.390813 0.920470 0.625000 0.750000
3 0 1 2
3 3 4 5
3 6 7 8
3 9 10 11
3 12 13 14
3 15 16 17
3 18 19 20
3 21 22 23
3 24 25 26
3 27 28 29
3 30 31 32
3 33 9 34
3 35 36 9
3 37 38 39
3 36 40 9
3 41 1 0
3 42 43 44
3 45 46 47
3 48 49 50
3 51 52 53
3 54 55 56
3 57 58 59
3 16 15 60
3 61 62 63
3 64 65 66
3 34 9 67
3 9 33 35
3 11 67 9
3 9 40 10
3 14 13 68
3 19 18 69
3 5 70 3
