ply
format ascii 1.0
comment Created by Blender 2.83.3 - www.blender.org, source file: 'rock2.blend'
element vertex 148
property float x
property float y
property float z
property float nx
property float ny
property float nz
property float s
property float t
element face 48
property list uchar uint vertex_indices
end_header
0.000000 0.000000 2.955914 -0.524180 -0.780616 0.340403 0.750000 0.625000
-1.000000 0.000000 1.416034 -0.524180 -0.780616 0.340403 1.000000 0.566406
0.000000 -0.671496 1.416034 -0.524180 -0.780616 0.340403 0.919922 1.000000
0.000000 -1.000000 0.000000 -0.462305 -0.803266 -0.375549 0.000000 1.000000
0.000000 -1.173456 0.371007 -0.462305 -0.803266 -0.375549 0.532751 0.875000
-0.661450 -0.661450 0.090123 -0.462305 -0.803266 -0.375549 0.500000 1.000000
-1.414761 0.000000 0.154457 -0.636846 0.692282 -0.339372 0.530255 0.125000
-1.000000 1.000000 1.416034 -0.636846 0.692282 -0.339372 1.000000 0.171875
-0.661450 0.661450 0.090123 -0.636846 0.692282 -0.339372 0.498047 0.173828
1.000000 0.000000 0.000000 0.269691 -0.264204 -0.925993 0.183594 0.427734
2.143725 0.000000 0.333104 0.269691 -0.264204 -0.925993 0.427842 0.603516
0.661450 -0.661450 0.090123 0.269691 -0.264204 -0.925993 0.400391 0.736328
0.000000 1.000000 0.000000 0.110200 0.325133 -0.939225 0.248047 0.263672
0.000000 1.461200 0.159654 0.110200 0.325133 -0.939225 0.528727 0.375000
1.766966 0.661450 0.090123 0.110200 0.325133 -0.939225 0.500000 0.500000
-0.661450 -0.661450 0.090123 -0.067812 -0.067812 -0.995391 0.500000 0.000000
-1.000000 0.000000 0.000000 -0.067812 -0.067812 -0.995391 0.000000 0.000000
0.000000 0.000000 0.000000 -0.067812 -0.067812 -0.995391 0.000000 0.227148
0.000000 -1.000000 0.000000 -0.067812 -0.067812 -0.995391 0.000000 1.000000
-0.661450 0.661450 0.090123 -0.283992 0.313656 -0.906073 0.498047 0.173828
0.000000 1.461200 0.159654 -0.283992 0.313656 -0.906073 0.528727 0.375000
0.000000 1.000000 0.000000 -0.283992 0.313656 -0.906073 0.248047 0.263672
1.766966 0.661450 0.090123 0.727506 0.675441 0.120476 0.500000 0.500000
0.921821 1.224389 2.037530 0.727506 0.675441 0.120476 0.646916 0.507812
2.105517 0.000000 1.754135 0.727506 0.675441 0.120476 0.602583 0.625000
-1.000000 0.000000 0.000000 -0.333684 -0.292876 -0.896035 0.000000 0.000000
-0.661450 -0.661450 0.090123 -0.333684 -0.292876 -0.896035 0.500000 0.000000
-1.414761 0.000000 0.154457 -0.333684 -0.292876 -0.896035 0.530255 0.125000
0.661450 -0.661450 0.090123 0.444329 -0.797700 -0.407734 0.400391 0.736328
0.967716 -1.163058 1.405236 0.444329 -0.797700 -0.407734 0.643513 0.763672
0.000000 -1.173456 0.371007 0.444329 -0.797700 -0.407734 0.532751 0.875000
1.000000 0.000000 2.189456 0.292929 -0.876429 0.382185 0.691406 0.613281
0.000000 0.000000 2.955914 0.292929 -0.876429 0.382185 0.750000 0.625000
0.000000 -0.671496 1.416034 0.292929 -0.876429 0.382185 0.919922 1.000000
0.753952 0.743075 2.671406 0.124675 0.241927 0.962251 0.779297 0.378906
0.000000 1.000000 2.704497 0.124675 0.241927 0.962251 0.841797 0.427734
0.000000 0.000000 2.955914 0.124675 0.241927 0.962251 0.750000 0.625000
0.000000 1.000000 2.704497 -0.814346 0.072389 0.575847 0.841797 0.427734
-1.000000 1.000000 1.416034 -0.814346 0.072389 0.575847 1.000000 0.171875
-1.000000 0.000000 1.416034 -0.814346 0.072389 0.575847 1.000000 0.566406
0.000000 0.000000 2.955914 -0.814346 0.072389 0.575847 0.750000 0.625000
0.000000 -1.000000 0.000000 0.067812 -0.067812 -0.995391 0.000000 1.000000
0.000000 0.000000 0.000000 0.067812 -0.067812 -0.995391 0.000000 0.227148
1.000000 0.000000 0.000000 0.067812 -0.067812 -0.995391 0.183594 0.427734
0.661450 -0.661450 0.090123 0.067812 -0.067812 -0.995391 0.400391 0.736328
0.000000 0.000000 0.000000 -0.067812 0.067812 -0.995391 0.000000 0.227148
-1.000000 0.000000 0.000000 -0.067812 0.067812 -0.995391 0.000000 0.000000
-0.661450 0.661450 0.090123 -0.067812 0.067812 -0.995391 0.498047 0.173828
0.000000 1.000000 0.000000 -0.067812 0.067812 -0.995391 0.248047 0.263672
1.000000 0.000000 0.000000 0.000000 0.000000 -1.000000 0.183594 0.427734
0.000000 0.000000 0.000000 0.000000 0.000000 -1.000000 0.000000 0.227148
0.000000 1.000000 0.000000 0.000000 0.000000 -1.000000 0.248047 0.263672
0.000000 1.461200 0.159654 -0.445483 0.436409 -0.781723 0.528727 0.375000
-0.661450 0.661450 0.090123 -0.445483 0.436409 -0.781723 0.498047 0.173828
-0.838073 1.131635 0.453265 -0.445483 0.436409 -0.781723 0.555916 0.250000
1.766966 0.661450 0.090123 0.283279 0.684294 -0.671934 0.500000 0.500000
0.000000 1.461200 0.159654 0.283279 0.684294 -0.671934 0.528727 0.375000
1.333415 1.777521 1.043944 0.283279 0.684294 -0.671934 0.586780 0.434147
0.661450 -0.661450 0.090123 0.427019 -0.807287 -0.407359 0.400391 0.736328
2.143725 0.000000 0.333104 0.427019 -0.807287 -0.407359 0.427842 0.603516
0.967716 -1.163058 1.405236 0.427019 -0.807287 -0.407359 0.643513 0.763672
2.143725 0.000000 0.333104 0.274539 -0.189898 -0.942638 0.427842 0.603516
1.000000 0.000000 0.000000 0.274539 -0.189898 -0.942638 0.183594 0.427734
1.766966 0.661450 0.090123 0.274539 -0.189898 -0.942638 0.500000 0.500000
0.000000 -1.173456 0.371007 0.462305 -0.803266 -0.375549 0.532751 0.875000
0.000000 -1.000000 0.000000 0.462305 -0.803266 -0.375549 0.000000 1.000000
0.661450 -0.661450 0.090123 0.462305 -0.803266 -0.375549 0.400391 0.736328
-0.661450 -0.661450 0.090123 -0.564964 -0.811564 -0.148924 0.500000 1.000000
0.000000 -1.173456 0.371007 -0.564964 -0.811564 -0.148924 0.532751 0.875000
-0.522405 -1.000000 1.407573 -0.564964 -0.811564 -0.148924 0.625000 1.000000
-1.414761 0.000000 0.154457 -0.635131 -0.743645 0.208808 0.530255 0.125000
-0.661450 -0.661450 0.090123 -0.635131 -0.743645 0.208808 0.500000 0.000000
-1.000000 0.000000 1.416034 -0.635131 -0.743645 0.208808 1.000000 0.062500
-0.838073 1.131635 0.453265 -0.958336 -0.213016 -0.190306 0.555916 0.250000
-0.661450 0.661450 0.090123 -0.958336 -0.213016 -0.190306 0.498047 0.173828
-1.000000 1.000000 1.416034 -0.958336 -0.213016 -0.190306 0.777344 0.191406
0.967716 -1.163058 1.405236 0.308941 -0.537592 0.784570 0.643513 0.763672
2.105517 0.000000 1.754135 0.308941 -0.537592 0.784570 0.602583 0.625000
1.000000 0.000000 2.189456 0.308941 -0.537592 0.784570 0.691406 0.613281
0.000000 1.670698 1.396126 -0.506719 0.767184 0.393274 0.666728 0.328125
-1.000000 1.000000 1.416034 -0.506719 0.767184 0.393274 0.777344 0.191406
0.000000 1.000000 2.704497 -0.506719 0.767184 0.393274 0.914062 0.244141
2.105517 0.000000 1.754135 0.362907 0.137530 0.921620 0.602583 0.625000
0.921821 1.224389 2.037530 0.362907 0.137530 0.921620 0.646916 0.507812
1.000000 0.000000 2.189456 0.362907 0.137530 0.921620 0.691406 0.613281
0.921821 1.224389 2.037530 -0.029835 0.799859 0.599447 0.646916 0.507812
0.000000 1.670698 1.396126 -0.029835 0.799859 0.599447 0.666728 0.328125
0.753952 0.743075 2.671406 -0.029835 0.799859 0.599447 0.779297 0.378906
0.967716 -1.163058 1.405236 0.711819 -0.702103 0.019139 0.643513 0.763672
2.143725 0.000000 0.333104 0.711819 -0.702103 0.019139 0.427842 0.603516
2.105517 0.000000 1.754135 0.711819 -0.702103 0.019139 0.602583 0.625000
0.000000 -0.671496 1.416034 -0.450872 -0.885073 -0.115586 0.732422 1.000000
0.967716 -1.163058 1.405236 -0.450872 -0.885073 -0.115586 0.643513 0.763672
0.556839 -1.038521 2.054359 -0.450872 -0.885073 -0.115586 0.812500 1.000000
0.000000 -0.671496 1.416034 -0.679413 0.198011 0.706534 0.919922 1.000000
0.556839 -1.038521 2.054359 -0.679413 0.198011 0.706534 0.812500 1.000000
1.000000 0.000000 2.189456 -0.679413 0.198011 0.706534 0.691406 0.613281
2.105517 0.000000 1.754135 0.864995 0.501241 0.023258 0.602583 0.625000
2.143725 0.000000 0.333104 0.864995 0.501241 0.023258 0.427842 0.603516
1.766966 0.661450 0.090123 0.864995 0.501241 0.023258 0.500000 0.500000
0.000000 -0.671496 1.416034 -0.008363 -0.012454 0.999887 0.919922 1.000000
-1.000000 0.000000 1.416034 -0.008363 -0.012454 0.999887 1.000000 0.566406
-0.522405 -1.000000 1.407573 -0.008363 -0.012454 0.999887 1.000000 0.996094
1.000000 0.000000 2.189456 0.940284 0.100396 0.325248 0.691406 0.613281
0.921821 1.224389 2.037530 0.940284 0.100396 0.325248 0.646916 0.507812
0.753952 0.743075 2.671406 0.940284 0.100396 0.325248 0.779297 0.378906
0.000000 0.000000 2.955914 0.580496 -0.299010 0.757375 0.750000 0.625000
1.000000 0.000000 2.189456 0.580496 -0.299010 0.757375 0.691406 0.613281
0.753952 0.743075 2.671406 0.580496 -0.299010 0.757375 0.779297 0.378906
1.000000 0.000000 2.189456 0.743279 -0.388062 0.544926 0.691406 0.613281
0.556839 -1.038521 2.054359 0.743279 -0.388062 0.544926 0.812500 1.000000
0.967716 -1.163058 1.405236 0.743279 -0.388062 0.544926 0.643513 0.763672
0.000000 1.000000 0.000000 0.062844 0.062844 -0.996043 0.248047 0.263672
1.766966 0.661450 0.090123 0.062844 0.062844 -0.996043 0.500000 0.500000
1.000000 0.000000 0.000000 0.062844 0.062844 -0.996043 0.183594 0.427734
0.000000 -1.173456 0.371007 -0.412672 -0.821073 0.394387 0.532751 0.875000
0.967716 -1.163058 1.405236 -0.412672 -0.821073 0.394387 0.643513 0.763672
0.000000 -0.671496 1.416034 -0.412672 -0.821073 0.394387 0.732422 1.000000
-0.522405 -1.000000 1.407573 0.488483 -0.786543 0.377802 0.625000 1.000000
0.000000 -1.173456 0.371007 0.488483 -0.786543 0.377802 0.532751 0.875000
0.000000 -0.671496 1.416034 0.488483 -0.786543 0.377802 0.732422 1.000000
-0.661450 0.661450 0.090123 -0.333684 0.292876 -0.896035 0.498047 0.173828
-1.000000 0.000000 0.000000 -0.333684 0.292876 -0.896035 0.000000 0.000000
-1.414761 0.000000 0.154457 -0.333684 0.292876 -0.896035 0.530255 0.125000
-0.838073 1.131635 0.453265 -0.407508 0.900370 -0.152551 0.555916 0.250000
0.000000 1.670698 1.396126 -0.407508 0.900370 -0.152551 0.666728 0.328125
0.000000 1.461200 0.159654 -0.407508 0.900370 -0.152551 0.528727 0.375000
0.921821 1.224389 2.037530 0.064647 0.860282 0.505702 0.646916 0.507812
1.333415 1.777521 1.043944 0.064647 0.860282 0.505702 0.586780 0.434147
0.000000 1.670698 1.396126 0.064647 0.860282 0.505702 0.666728 0.328125
-1.000000 0.000000 1.416034 0.949978 0.000000 -0.312318 1.000000 0.062500
-1.414761 0.000000 0.154457 0.949978 0.000000 -0.312318 0.530255 0.125000
-1.000000 1.000000 1.416034 0.949978 0.000000 -0.312318 1.000000 0.171875
-1.000000 0.000000 1.416034 -0.902311 -0.430808 -0.015476 1.000000 0.062500
-0.661450 -0.661450 0.090123 -0.902311 -0.430808 -0.015476 0.500000 0.000000
-0.522405 -1.000000 1.407573 -0.902311 -0.430808 -0.015476 1.000000 0.000000
0.000000 1.670698 1.396126 -0.556632 0.830520 0.019934 0.666728 0.328125
-0.838073 1.131635 0.453265 -0.556632 0.830520 0.019934 0.555916 0.250000
-1.000000 1.000000 1.416034 -0.556632 0.830520 0.019934 0.777344 0.191406
0.000000 1.670698 1.396126 -0.122186 0.978561 -0.165799 0.666728 0.328125
1.333415 1.777521 1.043944 -0.122186 0.978561 -0.165799 0.586780 0.434147
0.000000 1.461200 0.159654 -0.122186 0.978561 -0.165799 0.528727 0.375000
1.333415 1.777521 1.043944 0.919376 0.021451 0.392794 0.586780 0.434147
0.921821 1.224389 2.037530 0.919376 0.021451 0.392794 0.646916 0.507812
1.766966 0.661450 0.090123 0.919376 0.021451 0.392794 0.500000 0.500000
0.753952 0.743075 2.671406 0.307597 0.846745 0.434059 0.779297 0.378906
0.000000 1.670698 1.396126 0.307597 0.846745 0.434059 0.666728 0.328125
0.000000 1.000000 2.704497 0.307597 0.846745 0.434059 0.914062 0.244141
3 0 1 2
3 3 4 5
3 6 7 8
3 9 10 11
3 12 13 14
4 15 16 17 18
3 19 20 21
3 22 23 24
3 25 26 27
3 28 29 30
3 31 32 33
3 34 35 36
4 37 38 39 40
4 41 42 43 44
4 45 46 47 48
3 49 50 51
3 52 53 54
3 55 56 57
3 58 59 60
3 61 62 63
3 64 65 66
3 67 68 69
3 70 71 72
3 73 74 75
3 76 77 78
3 79 80 81
3 82 83 84
3 85 86 87
3 88 89 90
3 91 92 93
3 94 95 96
3 97 98 99
3 100 101 102
3 103 104 105
3 106 107 108
3 109 110 111
3 112 113 114
3 115 116 117
3 118 119 120
3 121 122 123
3 124 125 126
3 127 128 129
3 130 131 132
3 133 134 135
3 136 137 138
3 139 140 141
3 142 143 144
3 145 146 147
