ply
format ascii 1.0
comment Created by Blender 2.83.3 - www.blender.org, source file: 'rock.blend'
element vertex 108
property float x
property float y
property float z
property float nx
property float ny
property float nz
property float s
property float t
element face 42
property list uchar uint vertex_indices
end_header
-0.268045 0.660879 1.000000 -0.127603 0.285466 0.949856 0.750000 0.625000
-1.000000 0.333697 1.000000 -0.127603 0.285466 0.949856 0.925781 0.593750
0.000000 -0.666303 1.434875 -0.127603 0.285466 0.949856 0.781250 0.802734
0.718741 -2.930828 0.000000 -0.110067 -0.390243 0.914109 0.500000 0.875000
-0.166030 -1.662754 0.434820 -0.110067 -0.390243 0.914109 0.593810 0.886652
-0.665392 -2.540436 0.000000 -0.110067 -0.390243 0.914109 0.500000 0.921696
-2.268778 0.333697 0.000000 -0.619008 0.000000 0.785384 0.314453 0.203125
-1.000000 0.333697 1.000000 -0.619008 0.000000 0.785384 0.921875 0.107422
-1.000000 1.333697 1.000000 -0.619008 0.000000 0.785384 0.933594 0.304688
1.893928 0.968627 0.000000 0.545279 0.395955 0.738844 0.500000 0.625000
1.000000 0.333697 1.000000 0.545279 0.395955 0.738844 0.625000 0.625000
2.659375 -0.085489 0.000000 0.545279 0.395955 0.738844 0.500000 0.681562
0.000000 2.931843 0.000000 0.330375 0.353406 0.875189 0.500000 0.375000
0.000000 1.333697 0.645340 0.330375 0.353406 0.875189 0.625000 0.375000
0.965275 2.029473 0.000000 0.330375 0.353406 0.875189 0.500000 0.446550
-1.781168 -0.666303 0.000000 0.000000 0.000000 -1.000000 0.884766 0.000000
-2.268778 0.333697 0.000000 0.000000 0.000000 -1.000000 0.189453 0.125000
-1.458104 1.822416 0.000000 0.000000 0.000000 -1.000000 0.148438 0.164062
0.000000 2.931843 0.000000 0.000000 0.000000 -1.000000 0.046875 0.255859
0.965275 2.029473 0.000000 0.000000 0.000000 -1.000000 0.125000 0.446550
1.686353 1.867096 0.000000 0.000000 0.000000 -1.000000 0.279297 0.830078
1.893928 0.968627 0.000000 0.000000 0.000000 -1.000000 0.548828 0.902344
2.659375 -0.085489 0.000000 0.000000 0.000000 -1.000000 0.683594 0.994062
1.779971 -1.368091 0.000000 0.000000 0.000000 -1.000000 0.761719 0.925781
0.718741 -2.930828 0.000000 0.000000 0.000000 -1.000000 0.921875 0.890625
-0.665392 -2.540436 0.000000 0.000000 0.000000 -1.000000 0.929687 0.548126
-1.356979 -1.730444 0.000000 0.000000 0.000000 -1.000000 0.988281 0.250131
-1.458104 1.822416 0.000000 -0.503903 0.662273 0.554506 0.345703 0.310547
-1.000000 1.333697 1.000000 -0.503903 0.662273 0.554506 0.933594 0.304688
0.000000 2.931843 0.000000 -0.503903 0.662273 0.554506 0.480469 0.460938
1.686353 1.867096 0.000000 0.854693 0.197461 0.480114 0.500000 0.500000
1.431702 1.333697 0.672704 0.854693 0.197461 0.480114 0.625000 0.500000
1.893928 0.968627 0.000000 0.854693 0.197461 0.480114 0.500000 0.625000
-1.781168 -0.666303 0.000000 -0.592602 -0.288959 0.751881 0.500000 0.000000
-1.000000 0.333697 1.000000 -0.592602 -0.288959 0.751881 0.921875 0.107422
-2.268778 0.333697 0.000000 -0.592602 -0.288959 0.751881 0.314453 0.203125
1.779971 -1.368091 0.000000 0.702403 -0.194844 0.684592 0.240234 0.675781
1.000000 -0.666303 1.000000 0.702403 -0.194844 0.684592 0.667969 0.783203
0.733303 -2.161361 0.848123 0.702403 -0.194844 0.684592 0.230135 0.798828
1.000000 0.333697 1.000000 0.398797 0.000000 0.917039 0.496094 0.552734
0.000000 -0.666303 1.434875 0.398797 0.000000 0.917039 0.781250 0.802734
1.000000 -0.666303 1.000000 0.398797 0.000000 0.917039 0.667969 0.783203
1.431702 1.333697 0.672704 0.034776 0.364768 0.930449 0.554688 0.458984
0.000000 1.333697 0.645340 0.034776 0.364768 0.930449 0.748047 0.390625
-0.268045 0.660879 1.000000 0.034776 0.364768 0.930449 0.750000 0.625000
1.000000 0.333697 1.000000 0.034776 0.364768 0.930449 0.496094 0.552734
0.000000 1.333697 0.645340 0.314135 0.341746 0.885736 0.748047 0.390625
-1.000000 1.333697 1.000000 0.314135 0.341746 0.885736 0.970703 0.443359
-0.268045 0.660879 1.000000 0.314135 0.341746 0.885736 0.750000 0.625000
-0.665392 -2.540436 0.000000 -0.316598 -0.270318 0.909227 0.500000 0.921696
-0.166030 -1.662754 0.434820 -0.316598 -0.270318 0.909227 0.593810 0.886652
-1.356979 -1.730444 0.000000 -0.316598 -0.270318 0.909227 0.500000 0.922972
-1.356979 -1.730444 0.000000 -0.751833 -0.299696 0.587307 0.267578 0.942504
-1.000000 -0.666303 1.000000 -0.751833 -0.299696 0.587307 0.625000 1.000000
-1.781168 -0.666303 0.000000 -0.751833 -0.299696 0.587307 0.500000 1.000000
-0.166030 -1.662754 0.434820 -0.578451 -0.527810 0.621942 0.224669 0.882746
0.733303 -2.161361 0.848123 -0.578451 -0.527810 0.621942 0.230135 0.798828
0.000000 -0.666303 1.434875 -0.578451 -0.527810 0.621942 0.625000 0.875000
0.733303 -2.161361 0.848123 0.393521 -0.162124 0.904907 0.230135 0.798828
1.000000 -0.666303 1.000000 0.393521 -0.162124 0.904907 0.667969 0.783203
0.000000 -0.666303 1.434875 0.393521 -0.162124 0.904907 0.625000 0.875000
2.659375 -0.085489 0.000000 0.571607 -0.391917 0.720879 0.332031 0.558515
1.000000 -0.666303 1.000000 0.571607 -0.391917 0.720879 0.667969 0.783203
1.779971 -1.368091 0.000000 0.571607 -0.391917 0.720879 0.240234 0.675781
0.965275 2.029473 0.000000 0.128881 0.572328 0.809833 0.500000 0.446550
0.000000 1.333697 0.645340 0.128881 0.572328 0.809833 0.625000 0.375000
1.686353 1.867096 0.000000 0.128881 0.572328 0.809833 0.500000 0.500000
0.733303 -2.161361 0.848123 0.741274 -0.503387 0.443975 0.573885 0.875000
0.718741 -2.930828 0.000000 0.741274 -0.503387 0.443975 0.500000 0.875000
1.779971 -1.368091 0.000000 0.741274 -0.503387 0.443975 0.500000 0.750000
2.659375 -0.085489 0.000000 0.516155 -0.000000 0.856495 0.332031 0.558515
1.000000 0.333697 1.000000 0.516155 -0.000000 0.856495 0.496094 0.552734
1.000000 -0.666303 1.000000 0.516155 -0.000000 0.856495 0.667969 0.783203
-1.000000 -0.666303 1.000000 -0.303274 -0.649372 0.697381 0.625000 1.000000
-0.166030 -1.662754 0.434820 -0.303274 -0.649372 0.697381 0.224669 0.882746
0.000000 -0.666303 1.434875 -0.303274 -0.649372 0.697381 0.625000 0.875000
-0.268045 0.660879 1.000000 -0.000000 0.000000 1.000000 0.750000 0.625000
-1.000000 1.333697 1.000000 -0.000000 0.000000 1.000000 0.970703 0.443359
-1.000000 0.333697 1.000000 -0.000000 0.000000 1.000000 0.925781 0.593750
0.000000 2.931843 0.000000 0.312401 0.355691 0.880846 0.480469 0.460938
-1.000000 1.333697 1.000000 0.312401 0.355691 0.880846 0.933594 0.304688
0.000000 1.333697 0.645340 0.312401 0.355691 0.880846 0.880859 0.435547
-1.000000 1.333697 1.000000 -0.741037 0.403528 0.536684 0.933594 0.304688
-1.458104 1.822416 0.000000 -0.741037 0.403528 0.536684 0.345703 0.310547
-2.268778 0.333697 0.000000 -0.741037 0.403528 0.536684 0.314453 0.203125
1.686353 1.867096 0.000000 -0.011821 0.785687 0.618511 0.500000 0.500000
0.000000 1.333697 0.645340 -0.011821 0.785687 0.618511 0.625000 0.375000
1.431702 1.333697 0.672704 -0.011821 0.785687 0.618511 0.625000 0.500000
1.893928 0.968627 0.000000 0.780149 -0.137008 0.610407 0.500000 0.625000
1.431702 1.333697 0.672704 0.780149 -0.137008 0.610407 0.625000 0.500000
1.000000 0.333697 1.000000 0.780149 -0.137008 0.610407 0.625000 0.625000
-1.356979 -1.730444 0.000000 -0.237163 -0.621831 0.746378 0.267578 0.942504
-0.166030 -1.662754 0.434820 -0.237163 -0.621831 0.746378 0.224669 0.882746
-1.000000 -0.666303 1.000000 -0.237163 -0.621831 0.746378 0.625000 1.000000
-0.166030 -1.662754 0.434820 -0.583814 -0.596283 0.551006 0.593810 0.886652
0.718741 -2.930828 0.000000 -0.583814 -0.596283 0.551006 0.500000 0.875000
0.733303 -2.161361 0.848123 -0.583814 -0.596283 0.551006 0.573885 0.875000
-1.000000 0.333697 1.000000 -0.788056 0.000000 0.615604 0.921875 0.107422
-1.781168 -0.666303 0.000000 -0.788056 0.000000 0.615604 0.500000 0.000000
-1.000000 -0.666303 1.000000 -0.788056 0.000000 0.615604 0.625000 0.000000
0.000000 -0.666303 1.434875 -0.398797 0.000000 0.917039 0.781250 0.802734
-1.000000 0.333697 1.000000 -0.398797 0.000000 0.917039 0.925781 0.593750
-1.000000 -0.666303 1.000000 -0.398797 0.000000 0.917039 0.931641 0.919922
0.000000 -0.666303 1.434875 0.084001 0.325557 0.941784 0.781250 0.802734
1.000000 0.333697 1.000000 0.084001 0.325557 0.941784 0.496094 0.552734
-0.268045 0.660879 1.000000 0.084001 0.325557 0.941784 0.750000 0.625000
-1.781168 -0.666303 0.000000 0.000000 0.000000 -1.000000 0.451172 0.062500
-2.268778 0.333697 0.000000 0.000000 0.000000 -1.000000 0.175781 0.048828
3 0 1 2
3 3 4 5
3 6 7 8
3 9 10 11
3 12 13 14
12 15 16 17 18 19 20 21 22 23 24 25 26
3 27 28 29
3 30 31 32
3 33 34 35
3 36 37 38
3 39 40 41
4 42 43 44 45
3 46 47 48
3 49 50 51
3 52 53 54
3 55 56 57
3 58 59 60
3 22 23 21
3 61 62 63
3 64 65 66
3 67 68 69
3 70 71 72
3 73 74 75
3 76 77 78
3 79 80 81
3 82 83 84
3 85 86 87
3 88 89 90
3 91 92 93
3 94 95 96
3 97 98 99
3 100 101 102
3 103 104 105
3 20 21 19
3 19 17 18
3 17 106 107
3 15 25 26
3 23 24 25
3 21 23 25
3 19 21 17
3 15 17 25
3 25 17 21
