{
  "accessors": [
    {
      "bufferView": 2,
      "componentType": 5126,
      "count": 5193,
      "max": [
        1.0529690980911255,
        1.0263457298278809,
        0.7842590808868408
      ],
      "min": [
        -1.0300837755203247,
        -1.0137557983398438,
        0.3868630528450012
      ],
      "type": "VEC3"
    },
    {
      "bufferView": 2,
      "byteOffset": 62316,
      "componentType": 5126,
      "count": 5193,
      "max": [
        0.9998658895492554,
        0.9968071579933167,
        0.9999194145202637
      ],
      "min": [
        -0.9981712698936462,
        -0.9997161626815796,
        -0.9558635950088501
      ],
      "type": "VEC3"
    },
    {
      "bufferView": 3,
      "componentType": 5126,
      "count": 5193,
      "max": [
        0.9999720454216003,
        0.980567991733551,
        0.9996689558029175,
        1.0
      ],
      "min": [
        -0.8387851119041443,
        -0.9454472064971924,
        -0.9997337460517883,
        -1.0
      ],
      "type": "VEC4"
    },
    {
      "bufferView": 1,
      "componentType": 5126,
      "count": 5193,
      "max": [
        0.9586923122406006,
        0.9583789706230164
      ],
      "min": [
        0.027384446933865547,
        0.02583489380776882
      ],
      "type": "VEC2"
    },
    {
      "bufferView": 0,
      "componentType": 5125,
      "count": 30474,
      "type": "SCALAR"
    }
  ],
  "asset": {
    "extras": {
      "author": "assetfactory (https://sketchfab.com/assetfactory)",
      "license": "CC-BY-4.0 (http://creativecommons.org/licenses/by/4.0/)",
      "source": "https://sketchfab.com/3d-models/low-poly-red-coral-2135043d1e9c45919cfba5011c5a6cae",
      "title": "Low poly red coral"
    },
    "generator": "Sketchfab-12.98.0",
    "version": "2.0"
  },
  "bufferViews": [
    {
      "buffer": 0,
      "byteLength": 121896,
      "name": "floatBufferViews",
      "target": 34963
    },
    {
      "buffer": 0,
      "byteLength": 41544,
      "byteOffset": 121896,
      "byteStride": 8,
      "name": "floatBufferViews",
      "target": 34962
    },
    {
      "buffer": 0,
      "byteLength": 124632,
      "byteOffset": 163440,
      "byteStride": 12,
      "name": "floatBufferViews",
      "target": 34962
    },
    {
      "buffer": 0,
      "byteLength": 83088,
      "byteOffset": 288072,
      "byteStride": 16,
      "name": "floatBufferViews",
      "target": 34962
    }
  ],
  "buffers": [
    {
      "byteLength": 371160,
      "uri": "scene.bin"
    }
  ],
  "images": [
    {
      "uri": "textures/coral_2_baseColor.png"
    },
    {
      "uri": "textures/coral_2_metallicRoughness.png"
    },
    {
      "uri": "textures/coral_2_normal.png"
    }
  ],
  "materials": [
    {
      "doubleSided": true,
      "name": "coral_2",
      "normalTexture": {
        "index": 2
      },
      "occlusionTexture": {
        "index": 1
      },
      "pbrMetallicRoughness": {
        "baseColorTexture": {
          "index": 0
        },
        "metallicFactor": 0.0,
        "metallicRoughnessTexture": {
          "index": 1
        },
        "roughnessFactor": 0.25
      }
    }
  ],
  "meshes": [
    {
      "name": "Sphere.001_coral_2_0",
      "primitives": [
        {
          "attributes": {
            "NORMAL": 1,
            "POSITION": 0,
            "TANGENT": 2,
            "TEXCOORD_0": 3
          },
          "indices": 4,
          "material": 0,
          "mode": 4
        }
      ]
    }
  ],
  "nodes": [
    {
      "children": [
        1
      ],
      "matrix": [
        1.0,
        0.0,
        0.0,
        0.0,
        0.0,
        2.220446049250313e-16,
        -1.0,
        0.0,
        0.0,
        1.0,
        2.220446049250313e-16,
        0.0,
        0.0,
        0.0,
        0.0,
        1.0
      ],
      "name": "Sketchfab_model"
    },
    {
      "children": [
        2
      ],
      "matrix": [
        0.009999999776482582,
        0.0,
        0.0,
        0.0,
        0.0,
        0.0,
        0.009999999776482582,
        0.0,
        0.0,
        -0.009999999776482582,
        0.0,
        0.0,
        0.0,
        0.0,
        0.0,
        1.0
      ],
      "name": "9d57ee43c848439caaa86d9d98bd3d6e.fbx"
    },
    {
      "children": [
        3
      ],
      "name": "RootNode"
    },
    {
      "children": [
        4
      ],
      "matrix": [
        390.5506591796875,
        0.0,
        0.0,
        0.0,
        0.0,
        -6.362877873048229e-05,
        -390.5506591796823,
        0.0,
        0.0,
        390.5506591796823,
        -6.362877873048229e-05,
        0.0,
        0.0,
        0.0,
        0.0,
        1.0
      ],
      "name": "Sphere.001"
    },
    {
      "mesh": 0,
      "name": "Sphere.001_coral_2_0"
    }
  ],
  "samplers": [
    {
      "magFilter": 9729,
      "minFilter": 9987,
      "wrapS": 10497,
      "wrapT": 10497
    }
  ],
  "scene": 0,
  "scenes": [
    {
      "name": "Sketchfab_Scene",
      "nodes": [
        0
      ]
    }
  ],
  "textures": [
    {
      "sampler": 0,
      "source": 0
    },
    {
      "sampler": 0,
      "source": 1
    },
    {
      "sampler": 0,
      "source": 2
    }
  ]
}
